<svg width="70" height="70" fill="none" xmlns="http://www.w3.org/2000/svg"><mask id="a" maskUnits="userSpaceOnUse" x="0" y="0" width="70" height="70"><path fill="#C4C4C4" d="M0 0h70v70H0z"/></mask><g mask="url(#a)"><path d="M65.989 13H4.037a1.7 1.7 0 00-1.7 1.7v41.188a1.7 1.7 0 001.7 1.7h4.535a1.544 1.544 0 00.936 0h56.475a1.7 1.7 0 001.7-1.7V14.694c0-.936-.759-1.694-1.695-1.694zM42.7 53.806v-7.452l12.745 7.834h-12.79a1.7 1.7 0 00.045-.382zM41 39.056a1.7 1.7 0 00-1.7 1.7v13.056c0 .133.017.255.044.376h-8.443c.027-.122.044-.249.044-.376V40.64a1.7 1.7 0 00-1.7-1.7H6.357c-.221 0-.426.044-.62.122V31.26c.194.078.399.122.62.122h22.668a1.7 1.7 0 001.7-1.7V16.394h8.587V29.8a1.7 1.7 0 001.7 1.7c.089 0 .172-.012.255-.028.083.01.166.027.254.027H64.19c.039 0 .072-.01.11-.01v7.58c-.038 0-.071-.012-.11-.012H41.001zM27.6 54.188H15.15l12.402-7.624v7.248c0 .127.022.255.05.376zM5.732 21.305l11.511 6.683H6.357a1.65 1.65 0 00-.62.122v-6.805h-.006zm0 20.907c.194.078.4.122.62.122h11.683L5.731 49.476v-7.264zm21.594-18.127l-12.519-7.69h12.519v7.69zm15.376-7.69h12.63L42.7 24.156v-7.763zm21.588 11.72c-.039 0-.072-.01-.111-.01H52.7l11.589-6.728v6.739zm-.111 14.335c.039 0 .072-.01.11-.01v6.815L52.707 42.45h11.472zm.11-24.998L46.1 28.01c-.05.028-.088.061-.133.094h-3.21l19.051-11.71h2.475v1.058h.006zM8.324 16.394l18.87 11.594h-3.201a.748.748 0 00-.072-.05L5.73 17.38v-.991h2.592v.005zM5.73 53.402l18.421-10.691a1.7 1.7 0 00.438-.377h2.962v.244L8.666 54.188H5.731v-.786zm56.2.786L42.833 42.45h3.233c.078.067.16.133.255.188l17.967 10.554v.996H61.93z" fill="#FF403B"/></g></svg>