<svg width="70" height="70" fill="none" xmlns="http://www.w3.org/2000/svg"><mask id="a" maskUnits="userSpaceOnUse" x="0" y="0" width="70" height="70"><path fill="#FF403B" d="M0 0h70v70H0z"/></mask><g mask="url(#a)" fill="#FF403B"><path d="M16.449 36.855c4.532 0 8.22-3.688 8.22-8.22s-3.688-8.22-8.22-8.22-8.22 3.688-8.22 8.22 3.688 8.22 8.22 8.22zm0-13.671a5.463 5.463 0 015.456 5.456 5.463 5.463 0 01-5.456 5.455 5.463 5.463 0 01-5.456-5.455 5.463 5.463 0 015.456-5.457zM54.24 36.891c4.531 0 8.22-3.688 8.22-8.22s-3.689-8.22-8.22-8.22c-4.532 0-8.22 3.688-8.22 8.22s3.683 8.22 8.22 8.22zm0-13.671a5.463 5.463 0 015.456 5.456 5.463 5.463 0 01-5.456 5.456 5.463 5.463 0 01-5.456-5.456 5.463 5.463 0 015.456-5.456z"/><path d="M54.185 38.487c-1.754 0-3.336.253-4.761.695-1.362-3.021-5.312-9.74-13.563-9.74-9.027 0-13.086 6.944-14.402 9.898-1.493-.564-3.17-.889-5.06-.889C3.816 38.451.018 51.072-.233 57.745a1.388 1.388 0 001.33 1.434 1.396 1.396 0 001.434-1.33c0-.009 0-.036.004-.05.05-1.113.97-16.58 13.87-16.58 11.963 0 12.982 15.413 13.04 16.58 0 .019.005.046.005.06a1.384 1.384 0 001.38 1.325h.058a1.378 1.378 0 001.321-1.438c-.212-4.979-2.308-13.266-8.287-17.153.978-2.29 4.292-8.378 11.944-8.378 6.746 0 9.934 5.533 11.03 8.03-6.832 3.698-9.145 12.387-9.339 17.541a1.387 1.387 0 001.33 1.434 1.39 1.39 0 001.434-1.33c0-.01 0-.036.005-.05.04-.929.694-11.827 8.386-15.43.127-.004.248-.018.375-.054.216-.068.397-.185.55-.33 1.325-.482 2.832-.766 4.558-.766 11.963 0 12.982 15.412 13.04 16.58 0 .018.005.045.005.059a1.384 1.384 0 001.38 1.325h.059a1.381 1.381 0 001.32-1.438c-.288-6.687-3.954-19.299-15.813-19.299zM35.144 27.666c4.532 0 8.22-3.689 8.22-8.22 0-4.532-3.684-8.22-8.22-8.22-4.536 0-8.22 3.688-8.22 8.22 0 4.531 3.688 8.22 8.22 8.22zm0-13.677a5.463 5.463 0 015.456 5.456 5.463 5.463 0 01-5.456 5.456 5.463 5.463 0 01-5.456-5.456 5.463 5.463 0 015.456-5.456z"/></g></svg>