<svg width="259" height="254" fill="none" xmlns="http://www.w3.org/2000/svg"><path opacity=".4" d="M182.641 41.106c24.696 16.479 48.669 36.594 54.668 65.378 6.338 30.413-3.425 62.455-22.925 86.753-19.031 23.714-48.291 35.447-78.576 39.652-30.43 4.226-63.401 2.933-86.753-16.665-22.584-18.954-26.51-50.651-28.718-80.262-2.03-27.233.866-54.853 17.043-76.735 16.429-22.224 41.68-36.521 69.18-39.958 27.179-3.397 53.239 6.597 76.081 21.837z" stroke="#79B7EA"/><path d="M170.987 60.157c19.307 12.83 38.013 28.47 42.693 50.833 4.947 23.641-2.672 48.556-17.9 67.453-14.855 18.434-37.7 27.561-61.363 30.833-23.784 3.289-49.521 2.277-67.741-12.951-17.616-14.724-20.686-39.353-22.413-62.415-1.586-21.193.68-42.665 13.303-59.67 12.826-17.28 32.54-28.396 54.013-31.069 21.213-2.64 41.562 5.127 59.408 16.986z" stroke="#79B7EA"/><path opacity=".2" d="M191.577 27.22c28.827 19.215 56.838 42.686 63.847 76.286 7.404 35.49-4.001 72.878-26.776 101.227-22.232 27.674-56.41 41.361-91.773 46.266-35.525 4.928-74.044 3.425-101.33-19.451-26.393-22.127-30.974-59.124-33.55-93.646-2.372-31.763 1.008-63.994 19.908-89.533 19.191-25.934 48.688-42.616 80.81-46.626 31.752-3.964 62.192 7.699 88.864 25.477z" stroke="#79B7EA"/></svg>