<svg width="21" height="21" fill="none" xmlns="http://www.w3.org/2000/svg"><path d="M10.5 0C7.647 0 7.291.013 6.171.063c-1.118.053-1.88.228-2.549.488a5.142 5.142 0 00-1.86 1.211 5.123 5.123 0 00-1.21 1.86c-.26.67-.437 1.431-.489 2.55C.011 7.291 0 7.647 0 10.5c0 2.852.013 3.209.063 4.329.053 1.117.228 1.88.488 2.549a5.15 5.15 0 001.211 1.86c.525.534 1.16.948 1.86 1.21.67.26 1.432.437 2.55.489 1.12.052 1.476.063 4.328.063 2.852 0 3.209-.013 4.329-.063 1.117-.053 1.88-.23 2.549-.488a5.162 5.162 0 001.86-1.211 5.129 5.129 0 001.21-1.86c.26-.67.437-1.432.489-2.55.052-1.12.063-1.476.063-4.328 0-2.853-.013-3.209-.063-4.329-.053-1.117-.23-1.88-.488-2.549a5.156 5.156 0 00-1.211-1.86 5.117 5.117 0 00-1.86-1.21c-.67-.26-1.432-.437-2.55-.489C13.709.011 13.353 0 10.5 0zm0 1.89c2.803 0 3.137.014 4.244.062 1.024.048 1.58.218 1.948.363.492.19.84.418 1.21.784.366.368.594.717.784 1.209.143.369.315.925.361 1.948.05 1.108.061 1.44.061 4.244 0 2.803-.013 3.137-.064 4.244-.054 1.024-.224 1.58-.369 1.948a3.33 3.33 0 01-.787 1.21 3.282 3.282 0 01-1.207.784c-.367.143-.932.315-1.956.361-1.114.05-1.442.061-4.251.061-2.81 0-3.138-.013-4.252-.064-1.025-.054-1.589-.224-1.956-.369a3.252 3.252 0 01-1.207-.787 3.189 3.189 0 01-.788-1.207c-.144-.367-.314-.932-.367-1.956-.04-1.102-.053-1.442-.053-4.238 0-2.797.014-3.138.053-4.253.053-1.024.223-1.588.368-1.955.183-.499.419-.84.787-1.209.367-.366.709-.603 1.207-.785.367-.146.92-.316 1.943-.369 1.116-.04 1.444-.052 4.252-.052l.039.026zm0 3.218a5.392 5.392 0 100 10.784 5.392 5.392 0 000-10.784zm0 8.892A3.499 3.499 0 017 10.5C7 8.566 8.566 7 10.5 7S14 8.566 14 10.5 12.434 14 10.5 14zm6.865-9.104a1.26 1.26 0 01-2.52 0 1.26 1.26 0 012.52 0z" fill="#FAFAFA"/></svg>