<svg viewBox="0 0 100% 100%" fill="none" xmlns="http://www.w3.org/2000/svg"><mask id="a" maskUnits="userSpaceOnUse" x="0" y="0" width="100%" height="100%"><rect width="100%" height="100%" fill="#C4C4C4"/></mask><g mask="url(#a)"><path d="M1896.69 118.602c-27.65-35.349-51.77-60.84-73.35-78.11-21.59-17.268-40.66-26.336-58.22-28.795-35.15-4.923-63.96 16.67-94.33 51.146l-.01.006-222.56 233.364c-41.52 26.447-77.53 29.334-110.14 17.826-32.66-11.525-61.98-37.514-90.04-68.948-16.84-18.87-33.18-39.655-49.52-60.421-10.88-13.843-21.77-27.677-32.78-40.93-27.51-33.093-55.82-62.508-87.01-79.044l-.23-.125-.24.126-272.995 145.68-.047.025-.041.035c-83.293 70.553-133.641 84.71-171.832 69.181-19.124-7.776-35.282-23.022-51.047-42.55-10.914-13.518-21.612-29.05-32.968-45.538l-.001-.001-.205-.299-.057-.083c-4.973-7.218-10.072-14.617-15.371-22.109a1060.807 1060.807 0 00-7.792-10.881l-.228-.315-.362.145-290.5 116.334-.007.003-.007.003c-23.918 10.427-46.365 13.836-69.221 10.841-22.863-2.996-46.167-12.406-71.786-27.669-45.014-26.817-97.072-71.636-166.348-131.278l-.01-.008-.014-.013-.128-.11a21904.22 21904.22 0 00-29.701-25.54c-52.714-45.297-104.673-59.252-152.961-54.66-48.267 4.59-92.81 27.705-130.73 56.448-37.922 28.745-69.252 63.142-91.098 90.347-10.924 13.603-19.479 25.412-25.304 33.82a456.448 456.448 0 00-3.692 5.407 371.3 371.3 0 00-2.953 4.456 261.6 261.6 0 00-1.703 2.643l-.431.684-.109.175-.027.043-.007.012c-.001.003-.002.004.423.267l-.425-.263-.075.121V1426.5h3859.79V194.745l-.81.63.31.394-.31-.393-.01.005-.02.021-.11.081-.42.324c-.22.164-.5.374-.84.626-.25.185-.53.394-.85.624a235.415 235.415 0 01-6.55 4.606c-5.74 3.893-14.14 9.278-24.77 15.242-21.26 11.928-51.46 26.166-87.22 35.407-71.49 18.478-165.18 16.984-254.05-62.908-88.85-80.038-142.88-100.217-187.35-89.798-22.21 5.204-41.97 18.032-62.43 34.7-10.06 8.191-20.29 17.321-31.08 26.939l-.56.504c-11 9.805-22.57 20.112-35.12 30.461-25.1 20.697-44.55 32.486-61.09 38.049-16.51 5.556-30.14 4.909-43.64.686-12-3.755-23.9-10.33-37.64-17.93l-.01-.003c-1.75-.97-3.54-1.957-5.35-2.956-16.06-8.824-34.73-18.624-58.75-26.748-24.11-8.157-42.95-4.59-59.14 5.23-16.14 9.797-29.62 25.811-43.08 42.481l-1.51 1.872-1.66 2.065c-25.94 32.248-52.58 65.354-98.86 61.147-22.14-2.012-41.5 1.512-60.6 4.988-1.87.341-3.75.682-5.62 1.017-20.95 3.75-41.9 6.786-66.33 1.804-48.86-9.965-111.78-52.05-216.13-185.31z" fill="url(#paint0_linear)"/><path d="M3347.79 195.269s-197.44 154.069-375.48-5.994c-177.69-160.063-215.41-80.032-315.89 2.82-100.49 82.852-111.06 23.622-206.96-8.814-95.9-32.435-107.18 121.634-204.13 112.82-96.96-8.814-140.32 88.846-349.04-177.691-110.52-141.332-164.4-124.673-225.13-55.73L1660 74M-511 239.691s197.787-320.126 408.267-139.262C66.314 245.449 139.03 316.122 235 274.285L252.5 267m826-202.363c121.62 64.492 199.9 325.765 359.13 237.951m-632.13-92.27c-156.794 132.811-197.603 66.488-260.188-24.237" stroke="#79B7EA" stroke-miterlimit="10"/></g><defs><linearGradient id="paint0_linear" x1="1036" y1="-1382.5" x2="1029" y2="1431" gradientUnits="userSpaceOnUse"><stop stop-color="#E6ECFB"/><stop offset="1" stop-color="#F2F2F6"/></linearGradient></defs></svg>