<svg width="183" height="154" fill="none" xmlns="http://www.w3.org/2000/svg"><g clip-path="url(#clip0)"><path d="M182.705 42.169l-.004-.009c-1.061-2.513-3.057-4.509-5.723-5.442-1.328-.528-2.779-.788-4.349-.788-3.202 0-6.479 1.07-10.103 3.345.981-3.188 1.666-6.075 1.766-8.672.114-2.973-.539-5.59-2.403-7.85-1.471-1.863-4.136-3.967-8.862-3.967h-.029c-.478 0-1.142 0-1.7.132-8.228.854-15.125 6.819-20.63 14.187-5.387 7.212-9.509 15.858-12.296 22.67-1.038-.524-2.18-.991-3.271-1.437l-.383-.157c.429-1.144.75-2.327.866-3.717.259-3.092-1.105-5.954-3.735-7.602.07-.473.07-.978.069-1.361v-.058a105.62 105.62 0 01-.126-3.2v-.003c-.032-1.066-.063-2.141-.127-3.217-.126-5.673-.38-11.603-.886-17.41-.133-2.61-1.111-5.725-2.891-8.2-1.787-2.484-4.421-4.368-7.852-4.368-2.273 0-4.408.802-6.262 2.384-3.298 2.633-4.505 6.185-4.765 9.693-.258 3.496.42 6.994.925 9.571l.003.013.003.013.122.489c.818 4.421 1.858 9.1 3.726 13.31-2.628-.79-5.365-1.184-8.295-1.184-3.587 0-7.388.555-11.3 1.66l4.067-15.02s0 0 0 0c1.465-5.314-1.73-10.747-7.04-12.21-.815-.268-1.75-.399-2.674-.399-4.521 0-8.52 3.048-9.59 7.435l-4.233 15.704-2.938-5.23-.001-.002c-1.733-3.186-5.063-5.175-8.785-5.175-1.724 0-3.324.398-4.792 1.195l-.003.002c-2.4 1.329-3.994 3.455-4.787 5.96-.804 2.537-.4 5.32.79 7.565l.104.205c-1.975-.57-4.037-.934-6.109-.934-3.886 0-7.64 1.034-11.13 3.095l-.003.001c-7.107 4.25-10.714 10.95-11.966 18.34-1.25 7.38-.158 15.469 2.136 22.582 5.009 15.617 17.494 21.146 27.54 21.146 5.916 0 11.603-1.921 15.503-5.29l.002-.002a66.769 66.769 0 002.552-2.343c-3.396 7.508-2.968 16.055-2.747 19.022v.007c1.547 17.214 15.351 29.038 40.6 34.983 5.347 1.268 10.571 1.904 15.797 1.904 12.941 0 24.123-3.878 32.932-11.177 8.807-7.297 15.21-17.985 18.646-31.556v-.001c4.454-17.634 11.944-32.731 17.483-43.895l.312-.63s0 0 0 0l.224-.446c2.796-5.572 5.007-9.98 6.252-13.688 1.283-3.82 1.571-6.98.37-9.974zM26.934 59.68l.026-.015.024-.018c.4-.3.92-.405 1.218-.405.936 0 2.363.702 3.933 2.251 1.546 1.526 3.156 3.803 4.462 6.779.88 2.004 2.22 5.426 2.795 8.817.58 3.419.345 6.588-1.629 8.357-.322.202-1.35.656-2.984.656a8.71 8.71 0 01-4.515-1.251c-1.75-1.065-3.578-3.041-4.747-6.72l-.001-.005c-1.691-5.181-2.086-9.39-1.671-12.51.416-3.135 1.633-5.099 3.089-5.936zm76.841 27.063l.006.005c1.281.972 2.207 2.021 2.831 3.22.623 1.198.958 2.573 1.019 4.216v.008c.184 3.358-.797 6.772-2.135 9.625-1.34 2.858-3.011 5.096-4.147 6.109-1.034.917-2.555 1.513-4.474 1.513-1.942 0-3.932-.515-5.567-1.176a15.135 15.135 0 01-2.107-1.038c-.58-.351-.981-.667-1.185-.896l-.003-.002c-.5-.556-.949-1.456-1.354-2.591-.402-1.124-.744-2.426-1.06-3.745h0l-.002-.009-.036-.142c-1.205-4.685-3.32-12.917-11.818-15.206a6.27 6.27 0 00.723-.753c2.028 1.284 4.401 1.977 7.106 1.977 2.984 0 5.95-.775 8.484-1.532 2.798-.76 5.51-1.494 7.957-1.494 2.299 0 4.086.598 5.762 1.911z" fill="#FFF1E4" stroke="#FF403B"/><path d="M177.183 37.312c-1.012-2.395-2.909-4.286-5.439-5.168-1.264-.504-2.655-.757-4.173-.757-3.415 0-6.956 1.261-11.003 4.034 2.403-7.437 3.415-13.11-.126-17.396-1.391-1.765-3.921-3.782-8.474-3.782-.505 0-1.138 0-1.644.126-16.061 1.64-27.19 23.321-32.755 37.062-1.391-.756-3.035-1.387-4.553-2.017.506-1.26.885-2.521 1.012-4.034.253-3.025-1.138-5.799-3.794-7.311.126-.505.126-1.135.126-1.64-.126-2.142-.126-4.285-.253-6.428-.126-5.673-.379-11.598-.885-17.396C104.969 7.562 101.428.503 94.978.503c-2.15 0-4.173.756-5.944 2.269-6.323 5.042-4.68 13.614-3.667 18.783l.126.504c.885 4.79 2.024 9.833 4.174 14.245-2.91-1.009-5.945-1.513-9.233-1.513-3.794 0-7.84.63-12.014 1.89l4.3-15.882c1.39-5.043-1.644-10.211-6.703-11.598-.759-.252-1.644-.378-2.53-.378-4.3 0-8.093 2.9-9.105 7.06l-4.553 16.891-3.541-6.303c-1.644-3.025-4.806-4.916-8.347-4.916-1.644 0-3.162.378-4.553 1.134-2.276 1.26-3.794 3.278-4.553 5.673-.759 2.395-.38 5.042.76 7.185l.631 1.261c-2.276-.756-4.679-1.26-7.082-1.26-3.794 0-7.461 1.008-10.876 3.025-13.912 8.32-14.165 26.22-9.612 40.339 4.933 15.379 17.2 20.8 27.065 20.8 5.817 0 11.382-1.891 15.176-5.169 5.438-4.664 8.726-9.454 7.209-7.69-7.462 7.942-6.956 20.926-6.577 24.708 1.518 16.892 15.05 28.616 40.217 34.54 5.312 1.261 10.497 1.891 15.682 1.891 25.673 0 44.264-15.379 51.093-42.356 4.553-18.026 12.268-33.405 17.832-44.625 5.818-11.597 9.106-18.026 6.83-23.699zM33.009 80.802c-.38.253-1.518.757-3.288.757-2.15 0-7.336-.756-9.738-8.32-3.415-10.589-1.645-17.144 1.644-19.16a2.7 2.7 0 011.517-.505c2.277 0 6.197 3.277 8.853 9.328 1.77 4.286 5.312 14.119 1.012 17.9zm63.74 24.582c-1.138 1.009-2.782 1.639-4.806 1.639-4.047 0-8.22-2.143-9.232-3.278-1.138-1.26-1.897-3.907-2.53-6.555-1.264-4.916-3.414-13.488-12.646-15.253.632-.504 1.264-1.008 1.77-1.765 2.024 1.387 4.426 2.143 7.209 2.143 2.909 0 5.817-.756 8.347-1.512 2.782-.757 5.564-1.513 8.094-1.513 2.403 0 4.3.63 6.07 2.017 2.656 2.017 3.921 4.412 4.047 7.816.38 7.059-4.047 14.118-6.323 16.261z" fill="#fff" stroke="#FF403B" stroke-linecap="round" stroke-dasharray="4 8"/><path d="M29.72 94.67c-8.094 0-18.211-4.539-22.258-17.397-3.921-12.102-4.047-27.607 7.461-34.288 2.656-1.513 5.438-2.27 8.22-2.27 8.221 0 16.188 6.556 20.868 17.27 8.094 18.532 3.162 28.112-2.403 32.902-3.035 2.395-7.335 3.782-11.888 3.782zm-6.576-46.012c-1.392 0-2.783.378-4.174 1.134-4.806 2.9-8.347 10.967-3.794 25.086C18.717 85.845 27.191 86.6 29.72 86.6c2.656 0 5.059-.756 6.576-2.017 6.324-5.42 3.668-15.883.253-23.573-3.288-7.437-8.473-12.353-13.405-12.353zm67.028-6.681c-9.485-4.79-21.373-.883-29.467 3.151l6.956-25.716a4.397 4.397 0 00-3.162-5.42c-2.403-.63-4.806.756-5.438 3.151L51.22 46.137l-9.486-17.27c-1.138-2.143-3.92-2.9-6.07-1.765-2.15 1.134-2.909 3.908-1.77 6.05l24.028 43.365c.76 1.513 2.277 2.27 3.921 2.27.759 0 1.518-.127 2.15-.505 2.15-1.135 2.909-3.908 1.77-6.051l-8.346-15.127c6.07-4.16 20.234-11.724 28.834-7.312 2.15 1.135 4.806.253 5.944-1.89 1.012-2.143.127-4.79-2.023-5.925z" fill="#383968"/><path d="M142.656 58.616l.506.127c4.047-4.917 18.591-22.817 26.305-20.044 7.588 2.773-14.417 28.237-23.649 65.425-8.347 33.153-34.273 41.095-58.429 35.296-14.67-3.529-33.387-10.841-34.905-28.489-.885-9.959 2.276-22.565 11.888-22.565 10.876.127 7.082 13.363 13.28 19.918 3.793 4.034 16.187 8.95 23.775 2.143 6.197-5.673 15.05-24.708 1.771-34.667-13.28-9.958-27.823 6.177-31.617-3.781-3.794-9.959 17.958-22.313 33.387-16.766 4.553 1.639 8.474 3.782 11.888 6.303l.633-.756s12.394-37.818 29.593-39.583c11.003-1.135-.126 16.01-4.047 35.296a71.76 71.76 0 01-.379 2.143z" fill="#FFDE38"/><path d="M138.736 92.652c-1.012 0-1.898-.882-1.898-1.89 0-.505.127-12.733 3.921-32.524.126-.63.253-1.135.379-1.765l.127-.378c1.391-6.555 3.415-12.858 5.312-18.279 2.023-6.05 4.426-12.858 3.035-14.37-.253-.379-1.138-.505-2.277-.379-13.152 1.387-24.661 28.112-27.949 38.323-.38 1.008-1.391 1.512-2.403 1.26a1.996 1.996 0 01-1.265-2.395c.506-1.639 12.9-38.952 31.111-40.843 2.656-.252 4.553.378 5.692 1.765 2.529 3.151.505 9.076-2.53 18.026-1.77 5.42-3.92 11.471-5.185 17.774l-.126.379c-.127.63-.253 1.134-.38 1.764-3.794 19.414-3.92 31.767-3.92 31.893.253.757-.633 1.64-1.644 1.64z" fill="#383968"/><path d="M101.427 143.076c-4.932 0-9.864-.63-14.544-1.765-22.89-5.42-35.158-15.631-36.422-30.128-.633-6.681.506-15.757 5.311-20.8 2.277-2.395 5.186-3.655 8.474-3.655h.126c8.094.126 9.612 6.303 11.003 11.723.759 3.278 1.644 6.555 3.668 8.824 3.288 3.53 14.67 7.816 21.12 2.017 3.541-3.151 8.473-11.723 8.094-20.043-.253-4.917-2.277-8.824-6.071-11.724-6.197-4.664-12.773-2.9-18.59-1.387-5.312 1.387-11.256 3.026-13.66-3.277-1.39-3.782-.126-7.942 3.542-11.598 6.703-6.807 20.994-11.597 32.249-7.563 4.806 1.765 8.98 3.908 12.394 6.555 9.232 7.185 13.279 17.27 12.268 30.128-.127 1.009-1.012 1.765-2.024 1.765a2.04 2.04 0 01-1.77-2.017c1.011-11.471-2.656-20.547-10.75-26.85-3.162-2.396-6.956-4.413-11.382-6.051-9.612-3.404-22.385.63-28.33 6.68-1.517 1.514-3.92 4.539-2.655 7.69 1.138 2.774 2.782 2.774 9.232 1.009 5.944-1.639 14.165-3.782 21.879 2.017 4.679 3.53 7.335 8.572 7.588 14.497.506 9.706-5.185 19.287-9.358 23.068-8.22 7.438-21.753 2.774-26.432-2.269-2.783-2.899-3.794-6.933-4.68-10.462-1.39-5.8-2.403-8.825-7.335-8.825-2.276 0-4.173.757-5.817 2.521-3.288 3.53-4.933 10.463-4.3 17.901 1.138 12.732 12.394 21.682 33.514 26.725 21.752 5.168 47.805-1.009 56.025-33.91 4.68-19.035 12.774-34.793 18.591-46.39 3.794-7.564 7.335-14.75 6.576-16.64 0-.126 0-.126-.252-.252-5.312-2.017-17.2 11.093-23.777 19.035l-.379.504c-.632.756-1.897.882-2.656.252-.759-.63-.885-1.89-.253-2.647l.38-.504c8.979-10.841 20.361-22.943 27.949-20.17 1.138.378 2.024 1.26 2.53 2.395 1.391 3.53-1.645 9.58-6.703 19.792-5.691 11.345-13.659 26.976-18.212 45.633-7.208 28.111-26.685 38.196-46.161 38.196zm0-106.52c-.253-7.816-.379-15.757-1.011-23.573-.38-3.908-3.541-9.959-8.22-6.303-4.048 3.278-2.657 9.959-1.771 14.37.885 4.287 1.897 9.455 4.047 13.741.506 1.387 1.264 2.648 2.023 3.782 1.644 2.395 4.932.504 4.932-2.017z" fill="#383968"/><path d="M105.095 44.876c.126-1.513-.759-2.395-2.024-2.773-1.391-.378-3.035-.505-4.3.126-1.644.756-2.403 2.395-2.656 4.16-.126.756.254 1.765.886 2.269.759.504 1.517.882 2.403.756.126 0 .253 0 .38-.126.758.378 1.77.504 2.655.252 1.77-.63 2.403-3.025 2.656-4.664z" fill="#383968"/></g><defs><clipPath id="clip0"><path fill="#fff" transform="translate(0 .503)" d="M0 0h183v152.658H0z"/></clipPath></defs></svg>