<svg width="20" height="22" fill="none" xmlns="http://www.w3.org/2000/svg"><path d="M12.58 7.08A.764.764 0 0011.5 6l-7.379 6.786a3.56 3.56 0 00-1.06 2.549c0 .967.372 1.86 1.06 2.549 1.414 1.414 3.702 1.414 5.098 0l9.116-9.117a4.996 4.996 0 001.47-3.553c0-1.34-.521-2.605-1.47-3.554a5.03 5.03 0 00-7.126 0l-9.097 9.098a6.417 6.417 0 00-1.898 4.577c0 1.73.67 3.367 1.898 4.577a6.417 6.417 0 004.576 1.897c1.73 0 3.368-.67 4.577-1.897l4.037-4.038a.764.764 0 00-1.079-1.079l-4.037 4.038a4.927 4.927 0 01-3.498 1.45c-1.32 0-2.567-.52-3.497-1.45a4.927 4.927 0 01-1.451-3.498c0-1.321.52-2.568 1.45-3.498l9.098-9.097a3.461 3.461 0 012.475-1.024c.93 0 1.823.372 2.474 1.024a3.461 3.461 0 011.024 2.474c0 .93-.373 1.823-1.024 2.474l-9.116 9.117c-.8.8-2.121.8-2.94 0a2.07 2.07 0 010-2.94L12.58 7.08z" fill="#EA7303"/></svg>