<svg width="171" height="178" fill="none" xmlns="http://www.w3.org/2000/svg"><path d="M28.7 52.617h0c-9.191 1.742-20.518 5.3-24.904 17.55-2.15 6-.835 12.968.2 18.451l.012.06v.003c.27 1.384.5 2.69.672 3.801 3.168 22.661 6.222 39.901 9.876 55.927v.002c.115.499.23 1.018.346 1.556v.003l.023.103c1.438 6.517 3.455 15.661 11.314 20.304 2.743 1.637 5.993 2.482 9.842 2.634 8.258 4.968 17.174 4.516 25.5 3.282 1.157-.17 2.299-.355 3.447-.541l.48-.078.01-.001.204-.037.005-.001a5499.68 5499.68 0 0030.067-5.021l1.852-.309h.001a18293.54 18293.54 0 0031.615-5.349l.005-.001c.623-.112 1.247-.207 1.877-.303.34-.052.682-.104 1.026-.159h.003l.028-.004c7.147-1.09 16.982-2.588 22.497-11.326 6.178-2.494 10.67-6.392 13.338-11.669h0c3.248-6.436 1.9-14.084.845-20.068l-.007-.038a89.678 89.678 0 01-.537-3.341l-.001-.002c-2.898-21.08-6.087-39.42-9.759-56.121l-.001-.004a55.52 55.52 0 01-.239-1.106 98.5 98.5 0 00-.204-.956l-.001-.002-.022-.105c-1.38-6.557-3.137-14.906-9.669-20.276-3.207-2.638-7.023-3.638-10.729-3.891-3.641-.249-7.215.222-10.045.595l-.138.019h0l-.011.001-.491.076h-.006c-2.917.387-5.93.812-9.214 1.314-1.112.165-2.219.334-3.324.503h0c-1.022.156-2.043.312-3.067.464-1.646-1.667-3.607-3.194-5.91-4.614.472-2.17.894-4.335 1.297-6.462.141-.701.265-1.386.387-2.066 4.624-2.923 6.586-8.87 4.677-14.734-1.781-5.485-7.434-8.793-13.41-7.91h0c-1.08.16-2.126.44-3.115.864-3.145 1.311-5.503 3.833-6.65 7.072v.001a12.715 12.715 0 00-.24 7.722c-1.599 3.04-3.128 6.13-4.619 9.148a46.458 46.458 0 00-7.413.511 46.693 46.693 0 00-8.803 2.19 330.691 330.691 0 00-7.33-7.66 12.889 12.889 0 00-2.188-6.907l-.001-.002c-1.85-2.714-4.611-4.53-7.798-5.096a12.534 12.534 0 00-4.24-.06c-5.251.785-9.278 4.674-10.284 9.901h0c-1.195 6.235 2.65 12.42 8.652 14.247a880.16 880.16 0 004.592 8.093 38.632 38.632 0 00-4.795 6.97 2169.38 2169.38 0 00-15.524 2.853z" fill="#FFF1E4" stroke="#FF403B"/><path d="M165.643 118.75a93.55 93.55 0 01-.541-3.36c-2.877-21.07-6.083-39.397-9.752-56.083-.155-.676-.29-1.371-.444-2.066-1.391-6.605-3.11-14.832-9.521-20.104-6.199-5.099-14.813-3.92-20.529-3.167l-.502.077c-2.916.386-5.929.811-9.212 1.313-2.221.328-4.423.676-6.643 1.004-1.719-1.776-3.805-3.399-6.296-4.905.502-2.279.946-4.558 1.371-6.798.154-.772.29-1.526.425-2.279 4.538-2.742 6.527-8.516 4.654-14.271-1.68-5.215-7.087-8.401-12.843-7.532a12.064 12.064 0 00-2.993.83c-3.013 1.256-5.272 3.67-6.373 6.779a12.21 12.21 0 00-.174 7.609c-1.68 3.186-3.283 6.43-4.847 9.598a46.269 46.269 0 00-7.648.502 46.064 46.064 0 00-9.018 2.279 331.334 331.334 0 00-7.687-8.034 12.397 12.397 0 00-2.105-6.836c-1.776-2.607-4.422-4.346-7.474-4.886a12.032 12.032 0 00-4.074-.058c-5.04.753-8.903 4.48-9.869 9.501-1.159 6.045 2.627 12.051 8.497 13.731a881.64 881.64 0 004.867 8.575 38.138 38.138 0 00-5.079 7.358 1514.866 1514.866 0 00-15.759 2.877c-9.173 1.738-20.239 5.253-24.526 17.227-2.105 5.87-.811 12.726.232 18.25.27 1.39.502 2.703.676 3.823 3.167 22.634 6.218 39.861 9.868 55.87.116.503.232 1.024.348 1.565 1.448 6.566 3.418 15.546 11.104 20.084 2.685 1.603 5.89 2.434 9.734 2.569 8.13 4.944 16.936 4.519 25.28 3.283 1.312-.193 2.606-.406 3.92-.618l.212-.039a5323.303 5323.303 0 0030.069-5.021l1.854-.309c10.544-1.777 21.069-3.553 31.614-5.349.965-.174 1.95-.309 2.916-.464 7.223-1.12 16.898-2.588 22.267-11.239 6.16-2.453 10.602-6.296 13.229-11.491 3.148-6.277 1.834-13.77.772-19.795z" fill="#fff"/><path d="M50.27 174.331a.466.466 0 01-.464-.444c0-.252.193-.464.444-.464.31 0 .599-.019.908-.019a.441.441 0 01.463.444c.02.251-.193.463-.444.483-.29-.02-.599 0-.907 0zm-2.724-.039s-.019 0 0 0c-.328-.019-.637-.039-.946-.058a.454.454 0 11.058-.908c.29.02.599.039.889.058.25.02.444.213.444.483 0 .232-.213.425-.444.425zm6.354-.174a.443.443 0 01-.444-.405.468.468 0 01.406-.502c.309-.02.598-.058.907-.078.251-.038.464.155.502.406a.468.468 0 01-.405.502c-.31.039-.599.058-.908.097-.038-.02-.038-.02-.058-.02zm-9.965-.154h-.058c-.309-.039-.599-.097-.908-.155a.444.444 0 01-.366-.521.444.444 0 01.521-.367c.29.058.58.096.888.135a.46.46 0 01.387.522c-.058.212-.251.386-.464.386zm13.577-.251a.441.441 0 01-.445-.387.43.43 0 01.387-.502c.29-.038.598-.077.888-.135a.458.458 0 11.135.908c-.309.038-.598.096-.907.135-.02-.019-.04-.019-.058-.019zm-17.13-.502c-.039 0-.078 0-.116-.02-.29-.077-.599-.174-.889-.251a.448.448 0 01-.29-.56.449.449 0 01.56-.29c.29.097.58.174.85.252.252.057.387.309.31.56a.46.46 0 01-.425.309zm20.722-.039a.454.454 0 01-.445-.386.459.459 0 01.387-.522l.888-.135a.459.459 0 01.522.367.458.458 0 01-.367.521l-.908.155h-.077zm3.592-.599a.458.458 0 01-.077-.907l.888-.155a.46.46 0 01.521.367.458.458 0 01-.367.521l-.907.155c-.02.019-.039.019-.058.019zm-27.752-.56a.573.573 0 01-.174-.038c-.29-.116-.56-.251-.85-.367a.431.431 0 01-.212-.599c.116-.232.386-.328.599-.212.27.135.54.251.81.367a.437.437 0 01.233.598c-.058.155-.232.251-.406.251zm31.344-.019a.454.454 0 01-.444-.386.46.46 0 01.367-.522l.907-.154a.458.458 0 01.522.367.458.458 0 01-.367.521l-.889.155c-.058.019-.077.019-.096.019zm3.573-.599a.458.458 0 01-.077-.907l.888-.155a.458.458 0 01.521.367.458.458 0 01-.367.521l-.888.155c-.02.019-.039.019-.078.019zm3.591-.598a.459.459 0 01-.077-.908l.889-.155a.46.46 0 01.521.367.46.46 0 01-.367.522l-.888.154c-.02.02-.058.02-.078.02zm-41.752-.425a.523.523 0 01-.232-.058l-.116-.058c-.193 0-.367-.019-.56-.019a.455.455 0 11.058-.908c.212.019.425.019.657.019.077 0 .154.019.212.058l.212.116c.213.135.29.406.155.618a.426.426 0 01-.386.232zm45.345-.174a.454.454 0 01-.445-.386.46.46 0 01.367-.522l.889-.154a.444.444 0 01.521.367.444.444 0 01-.367.521l-.888.155c-.039.019-.058.019-.077.019zm-48.918-.27h-.077a78.345 78.345 0 01-.908-.174.447.447 0 01-.348-.541.447.447 0 01.541-.348c.29.058.58.116.87.155.25.038.424.27.366.521a.454.454 0 01-.444.387zm52.49-.329a.458.458 0 01-.077-.907l.888-.155a.445.445 0 01.522.367.444.444 0 01-.367.521l-.888.155c-.02.019-.039.019-.078.019zm-56.005-.579c-.058 0-.096 0-.154-.019-.29-.116-.58-.213-.87-.348a.463.463 0 01-.25-.599.463.463 0 01.598-.251c.27.116.54.232.83.329a.443.443 0 01.271.579.471.471 0 01-.425.309zm59.597-.019a.459.459 0 01-.077-.908l.888-.155a.445.445 0 01.522.367.445.445 0 01-.367.522l-.888.154c-.039.02-.058.02-.078.02zm3.593-.599a.454.454 0 01-.445-.386.445.445 0 01.367-.522l.889-.154a.458.458 0 01.521.367.459.459 0 01-.367.521l-.888.155c-.039 0-.058.019-.078.019zm3.572-.618a.454.454 0 01-.444-.386.46.46 0 01.367-.522l.888-.154a.458.458 0 01.522.367.459.459 0 01-.367.521l-.889.155c-.019.019-.057.019-.077.019zm-70.026-.367a.424.424 0 01-.25-.077c-.271-.174-.522-.348-.773-.522a.463.463 0 01-.116-.637.464.464 0 01.637-.116c.232.174.483.328.734.483.213.135.27.425.135.618-.077.193-.212.251-.367.251zm73.618-.232a.453.453 0 01-.444-.386.444.444 0 01.367-.521l.888-.155a.458.458 0 01.522.367.458.458 0 01-.367.521l-.889.155c-.038.019-.057.019-.077.019zm3.573-.598a.454.454 0 01-.444-.387.444.444 0 01.367-.521l.888-.155a.456.456 0 01.522.367.46.46 0 01-.367.522l-.889.154c-.019.02-.038.02-.077.02zm3.592-.599a.455.455 0 01-.444-.386.445.445 0 01.367-.522l.888-.154a.445.445 0 01.522.367.46.46 0 01-.367.521l-.889.155c-.019.019-.058.019-.077.019zm3.592-.618a.455.455 0 01-.444-.386.445.445 0 01.367-.522l.888-.154a.47.47 0 01.522.367.46.46 0 01-.367.521l-.889.155c-.038.019-.058.019-.077.019zm-87.233-.193a.386.386 0 01-.309-.135c-.232-.213-.444-.445-.656-.657a.454.454 0 01.019-.637.454.454 0 01.637.019c.193.212.406.425.618.637.174.174.193.464.02.638-.078.096-.213.135-.329.135zm90.806-.406a.452.452 0 01-.444-.386.444.444 0 01.367-.521l.888-.155a.444.444 0 01.521.367.443.443 0 01-.367.521l-.888.155c-.019.019-.039.019-.077.019zm3.592-.598a.453.453 0 01-.444-.387.444.444 0 01.367-.521l.888-.155c.251-.038.483.116.521.367a.445.445 0 01-.366.522l-.889.154c-.038.02-.058.02-.077.02zm3.573-.618a.455.455 0 01-.445-.387c-.038-.251.116-.483.367-.521l.889-.155c.251-.038.483.116.521.367a.445.445 0 01-.367.522l-.888.154c-.019.02-.039.02-.077.02zm3.592-.599a.453.453 0 01-.444-.386.445.445 0 01.366-.522l.889-.154a.453.453 0 01.521.367.444.444 0 01-.367.521l-.907.155c0 .019-.039.019-.058.019zm-103.9-.541c-.135 0-.29-.058-.366-.193a27.199 27.199 0 01-.522-.772.469.469 0 01.135-.638.468.468 0 01.638.135c.154.251.328.503.502.734a.464.464 0 01-.116.638.422.422 0 01-.27.096zm107.492-.077a.453.453 0 01-.444-.386.445.445 0 01.367-.522l.811-.135c.251-.039.521.116.56.367.038.251-.078.463-.329.521l-.096.02-.811.135h-.058zm3.573-.579a.455.455 0 01-.445-.387.458.458 0 01.387-.521l.888-.135a.457.457 0 01.521.386.457.457 0 01-.386.521l-.908.136h-.057zm3.592-.58a.455.455 0 01-.445-.367c-.038-.251.116-.483.367-.521.29-.058.599-.097.889-.155.231-.038.483.116.521.367a.445.445 0 01-.367.522c-.309.058-.598.116-.907.154h-.058zm3.572-.734a.453.453 0 01-.444-.347.45.45 0 01.328-.541c.29-.077.58-.135.87-.213.251-.077.482.078.56.329a.464.464 0 01-.329.56c-.289.077-.598.154-.888.232-.039-.02-.058-.02-.097-.02zm3.477-1.004a.434.434 0 01-.425-.309.452.452 0 01.289-.579c.29-.097.56-.193.85-.309a.442.442 0 01.579.27.442.442 0 01-.27.579c-.29.116-.579.213-.869.309a.357.357 0 01-.154.039zm-123.56-.154a.45.45 0 01-.405-.252c-.135-.27-.27-.56-.386-.83a.454.454 0 11.83-.367c.116.271.251.541.386.811a.431.431 0 01-.212.599c-.077.039-.135.039-.213.039zm126.92-1.256a.457.457 0 01-.193-.869c.27-.135.521-.27.792-.405a.466.466 0 01.618.173.467.467 0 01-.174.618c-.271.155-.541.29-.811.425-.097.058-.155.058-.232.058zm3.109-1.854c-.135 0-.29-.058-.367-.193a.46.46 0 01.097-.637c.231-.174.483-.348.714-.541a.46.46 0 01.638.077.46.46 0 01-.078.638c-.251.193-.482.386-.734.56a.458.458 0 01-.27.096zm-131.438-.231a.435.435 0 01-.425-.309l-.29-.869a.47.47 0 01.29-.58.47.47 0 01.58.29c.096.29.192.56.289.85.077.231-.039.502-.27.579-.059.039-.116.039-.174.039zm134.18-2.144a.388.388 0 01-.309-.135c-.173-.174-.193-.464-.019-.638.213-.212.406-.424.599-.656a.438.438 0 01.637-.039.438.438 0 01.039.637c-.213.232-.406.464-.618.676a.477.477 0 01-.329.155zm-135.243-1.333a.476.476 0 01-.444-.328c-.077-.29-.154-.599-.231-.888a.463.463 0 01.328-.56.463.463 0 01.56.328l.232.869a.463.463 0 01-.329.56c-.038.019-.077.019-.115.019zm137.503-1.506a.464.464 0 01-.386-.715l.289-.463a.616.616 0 01.213-.174l.328-.135a.462.462 0 01.599.251.464.464 0 01-.251.599l-.193.077a70.08 70.08 0 00-.232.348.414.414 0 01-.367.212zm3.109-1.738a.473.473 0 01-.405-.251.466.466 0 01.193-.618c.27-.135.521-.27.792-.425a.465.465 0 01.618.174.467.467 0 01-.174.618c-.271.154-.541.289-.811.444a.503.503 0 01-.213.058zm-141.48-.29a.453.453 0 01-.445-.347l-.193-.889a.445.445 0 01.348-.54.455.455 0 01.54.347l.194.889a.446.446 0 01-.348.54h-.097zm144.589-1.583c-.135 0-.289-.058-.366-.193a.463.463 0 01.115-.638c.251-.174.483-.347.715-.521a.444.444 0 01.637.096.445.445 0 01-.096.638c-.251.193-.502.367-.754.54a.387.387 0 01-.251.078zm-145.381-1.97a.453.453 0 01-.444-.348l-.194-.888a.447.447 0 01.348-.541.447.447 0 01.54.348l.194.888a.447.447 0 01-.348.541h-.096zm148.201-.329a.449.449 0 01-.328-.135.438.438 0 01.019-.637c.212-.212.425-.406.637-.618.174-.174.464-.193.638-.019.173.174.193.463.019.637-.212.232-.444.444-.657.657a.614.614 0 01-.328.115zm2.414-2.703a.459.459 0 01-.27-.097.481.481 0 01-.097-.637c.174-.232.348-.483.522-.715.135-.212.424-.251.637-.115.212.135.251.424.116.637-.174.251-.348.502-.541.753a.549.549 0 01-.367.174zm-151.407-.502a.436.436 0 01-.444-.367l-.193-.889a.446.446 0 01.347-.54.446.446 0 01.54.347l.194.889a.446.446 0 01-.348.54c-.019 0-.057.02-.096.02zm153.338-2.569a.435.435 0 01-.212-.058.45.45 0 01-.193-.618l.135-.27c.096-.174.174-.348.251-.522.116-.231.386-.328.599-.212a.431.431 0 01.212.599c-.097.193-.174.367-.27.56l-.136.27c-.057.155-.231.251-.386.251zm-154.091-.985a.454.454 0 01-.444-.367l-.194-.888a.447.447 0 01.348-.541c.251-.058.483.116.54.348l.194.888a.447.447 0 01-.348.541c-.038 0-.077.019-.096.019zm155.424-2.394c-.039 0-.077 0-.116-.02a.443.443 0 01-.309-.56c.077-.289.154-.579.212-.85a.446.446 0 01.541-.347.456.456 0 01.348.541c-.078.309-.155.598-.232.907a.476.476 0 01-.444.329zM9.888 134.722a.455.455 0 01-.444-.367l-.174-.889c-.058-.251.116-.483.347-.541a.462.462 0 01.541.348l.174.888c.058.252-.116.483-.348.541a.217.217 0 01-.096.02zm156.814-2.395h-.038c-.251-.02-.425-.251-.406-.502.039-.29.058-.599.077-.889a.455.455 0 01.908.058c-.019.309-.038.618-.077.927a.477.477 0 01-.464.406zM9.173 131.168a.454.454 0 01-.444-.367l-.174-.888a.474.474 0 01.367-.541c.251-.058.483.116.54.367l.175.888c.058.251-.116.483-.367.541h-.097zm157.645-2.472a.465.465 0 01-.463-.444c0-.309-.02-.599-.039-.888a.454.454 0 11.908-.058c.019.309.038.618.038.927a.43.43 0 01-.444.463c.02 0 0 0 0 0zm-158.34-1.101a.454.454 0 01-.444-.367l-.174-.888a.444.444 0 01.367-.521.444.444 0 01.521.367l.174.888a.444.444 0 01-.367.521h-.077zm158.07-2.53a.441.441 0 01-.444-.405c-.039-.309-.078-.599-.116-.888a.43.43 0 01.386-.503c.232-.038.483.136.502.387l.116.907c.019.251-.154.483-.405.502h-.039zM7.821 124.023a.455.455 0 01-.444-.367l-.154-.889a.444.444 0 01.367-.521.444.444 0 01.521.367l.155.888a.445.445 0 01-.367.522H7.82zm158.205-2.55a.454.454 0 01-.444-.386l-.154-.888a.445.445 0 01.367-.522c.251-.038.483.116.521.367l.155.908a.46.46 0 01-.367.521h-.078zM7.184 120.45a.455.455 0 01-.444-.367l-.155-.888a.445.445 0 01.367-.522.432.432 0 01.522.367l.154.888a.445.445 0 01-.367.522c-.038-.019-.058 0-.077 0zm158.456-1.255a.456.456 0 01-.444-.367l-.154-.889a.443.443 0 01.366-.521.432.432 0 01.522.367l.154.888a.445.445 0 01-.367.522h-.077zM6.566 116.858a.454.454 0 01-.444-.386l-.155-.889a.444.444 0 01.367-.521.444.444 0 01.522.367l.154.888a.444.444 0 01-.367.521c-.038.02-.058.02-.077.02zm158.495-1.256c-.232 0-.425-.154-.444-.386l-.116-.907a.431.431 0 01.386-.503c.232-.038.483.136.502.387l.116.907a.458.458 0 01-.386.522c-.02-.02-.039-.02-.058-.02zM5.948 113.285a.453.453 0 01-.444-.386l-.155-.889a.459.459 0 01.367-.521.458.458 0 01.522.367l.154.888a.46.46 0 01-.367.522c-.019 0-.038.019-.077.019zm158.611-1.275c-.232 0-.425-.154-.444-.386l-.136-.907a.46.46 0 01.387-.522.469.469 0 01.521.386l.135.908a.457.457 0 01-.386.521h-.077zm-159.19-2.317a.454.454 0 01-.444-.386l-.136-.889a.458.458 0 11.908-.135l.135.889a.458.458 0 01-.386.521h-.077zm158.668-1.275c-.212 0-.425-.154-.444-.386l-.135-.908a.458.458 0 11.908-.135l.135.908a.458.458 0 01-.386.521h-.078zM4.809 106.101a.454.454 0 01-.444-.386l-.136-.908a.457.457 0 01.387-.521.458.458 0 01.521.386l.135.907a.458.458 0 01-.386.522h-.077zm158.707-1.294c-.213 0-.425-.155-.444-.386l-.135-.908a.457.457 0 01.386-.521.457.457 0 01.521.386l.135.908a.457.457 0 01-.386.521h-.077zM4.249 102.509a.454.454 0 01-.445-.386l-.135-.908a.457.457 0 01.387-.521.458.458 0 01.521.386l.135.907a.459.459 0 01-.386.522h-.077zm158.726-1.294a.455.455 0 01-.444-.386l-.135-.908a.458.458 0 11.907-.135l.136.908a.459.459 0 01-.387.521h-.077zM3.708 98.917c-.213 0-.425-.155-.444-.386l-.135-.908a.458.458 0 11.907-.135l.135.907a.458.458 0 01-.386.522h-.077zm158.707-1.294a.454.454 0 01-.444-.386l-.155-.889a.46.46 0 01.387-.521.469.469 0 01.521.386l.135.908a.458.458 0 01-.386.521c-.019-.02-.039-.02-.058-.02zM3.167 95.325c-.232 0-.425-.155-.444-.386l-.135-.908a.458.458 0 11.907-.135l.136.907a.458.458 0 01-.387.522c-.019-.02-.038 0-.077 0zm158.669-1.275a.453.453 0 01-.444-.386l-.155-.889a.458.458 0 01.367-.52.458.458 0 01.521.366l.155.888a.458.458 0 01-.367.522c-.019 0-.058.02-.077.02zM2.666 91.713c-.233 0-.426-.154-.445-.386l-.135-.908a.458.458 0 11.907-.135l.136.908a.458.458 0 01-.387.521h-.077zm158.571-1.255a.454.454 0 01-.444-.386l-.155-.889a.46.46 0 01.367-.521.455.455 0 01.522.367l.154.888a.445.445 0 01-.367.522c-.019.02-.038.02-.077.02zM2.105 88.121a.455.455 0 01-.444-.367l-.155-.888a.445.445 0 01.367-.521.445.445 0 01.522.367l.174.888a.445.445 0 01-.367.521h-.097zm158.533-1.255a.454.454 0 01-.444-.386l-.154-.889a.444.444 0 01.367-.521c.231-.058.482.116.521.367l.155.888a.445.445 0 01-.367.522c-.039.019-.058.019-.078.019zM1.448 84.549a.455.455 0 01-.444-.367l-.154-.889a.445.445 0 01.367-.521.432.432 0 01.521.367l.155.888a.445.445 0 01-.367.522h-.078zm158.553-1.256a.455.455 0 01-.444-.367l-.155-.888a.445.445 0 01.367-.522.455.455 0 01.522.367l.154.889a.445.445 0 01-.367.521h-.077zM.85 80.956c-.232 0-.425-.154-.444-.386-.04-.309-.078-.598-.116-.907a.443.443 0 01.386-.502.443.443 0 01.502.386c.039.309.077.598.116.888a.458.458 0 01-.386.522H.85zm158.514-1.236a.453.453 0 01-.444-.366l-.174-.889a.444.444 0 01.367-.521.454.454 0 01.521.367l.174.888a.444.444 0 01-.367.522h-.077zM.483 77.346c-.232 0-.444-.193-.444-.425-.02-.309-.039-.618-.039-.927a.454.454 0 11.908-.02c.019.29.019.6.038.909a.454.454 0 01-.425.482c-.019-.019-.038-.019-.038-.019zm158.205-1.197a.453.453 0 01-.444-.367l-.174-.889a.444.444 0 01.367-.52.444.444 0 01.521.366l.174.888a.474.474 0 01-.367.541c-.019-.02-.039-.02-.077-.02zM.463 73.714H.444a.454.454 0 01-.425-.482c.02-.31.039-.618.078-.927.019-.251.25-.425.502-.406.25.02.425.251.405.502-.02.29-.058.599-.058.889-.058.231-.25.424-.483.424zm157.549-1.139a.453.453 0 01-.444-.367l-.174-.888a.474.474 0 01.367-.541.485.485 0 01.541.367l.173.888c.058.251-.115.483-.367.541h-.096zM.946 70.122c-.038 0-.058 0-.096-.019a.446.446 0 01-.348-.54c.077-.31.135-.6.232-.908a.437.437 0 01.56-.31.43.43 0 01.309.56c-.077.29-.155.58-.213.85-.057.213-.231.367-.444.367zm156.351-1.12a.455.455 0 01-.444-.367l-.174-.888c-.058-.251.116-.483.348-.54.232-.059.483.115.541.347l.174.888c.058.251-.116.483-.348.541-.039.02-.077.02-.097.02zM2.086 66.665a.573.573 0 01-.174-.038.438.438 0 01-.232-.599c.116-.29.251-.56.386-.85.116-.231.367-.328.6-.212.23.116.327.386.212.599-.116.27-.252.54-.367.81a.452.452 0 01-.425.29zm154.478-1.216a.455.455 0 01-.445-.367l-.193-.888a.447.447 0 01.348-.541.456.456 0 01.541.347l.193.889a.447.447 0 01-.348.54c-.039.02-.077.02-.096.02zM3.747 63.44c-.078 0-.174-.019-.232-.077a.464.464 0 01-.155-.618c.174-.27.329-.521.502-.772a.443.443 0 01.638-.116c.212.135.27.425.116.637a9.851 9.851 0 00-.483.753c-.077.136-.232.193-.386.193zm152.063-1.545a.455.455 0 01-.444-.367l-.193-.888a.447.447 0 01.348-.54.446.446 0 01.54.347l.194.888a.447.447 0 01-.348.541c-.039.02-.077.02-.097.02zM5.91 60.544a.474.474 0 01-.31-.116.439.439 0 01-.038-.638c.212-.231.405-.463.618-.675.174-.174.463-.194.637-.02.174.174.193.464.02.638a9.629 9.629 0 00-.6.656.413.413 0 01-.327.155zm149.128-2.202a.453.453 0 01-.444-.367l-.193-.888c-.058-.251.115-.483.347-.541.232-.058.483.116.541.348l.193.888a.447.447 0 01-.348.54c-.038.02-.077.02-.096.02zM8.517 58.014a.439.439 0 01-.348-.174.456.456 0 01.058-.637c.232-.194.483-.387.734-.58a.458.458 0 01.637.078.458.458 0 01-.077.637 17.22 17.22 0 00-.695.56.474.474 0 01-.31.116zm2.974-2.105a.445.445 0 01-.386-.213.443.443 0 01.154-.618c.27-.154.521-.309.792-.463.212-.136.502-.039.618.173a.466.466 0 01-.174.619c-.251.154-.521.29-.772.444a.515.515 0 01-.232.058zm142.794-1.12a.452.452 0 01-.444-.348c-.058-.29-.136-.58-.194-.888a.447.447 0 01.869-.212c.078.289.136.598.213.887a.447.447 0 01-.348.541c-.038 0-.077.02-.096.02zm-139.589-.58c-.173 0-.347-.096-.405-.27a.454.454 0 01.232-.599c.27-.135.56-.25.85-.367a.453.453 0 01.598.232.47.47 0 01-.232.599c-.27.115-.54.231-.81.367-.117.019-.175.038-.232.038zm3.38-1.332a.434.434 0 01-.425-.31.453.453 0 01.29-.579l.869-.29a.47.47 0 01.58.29.47.47 0 01-.29.58c-.29.096-.56.193-.85.29a.675.675 0 01-.174.019zm3.476-1.043a.47.47 0 01-.444-.348.463.463 0 01.328-.56c.29-.077.6-.154.889-.232a.449.449 0 01.54.329.449.449 0 01-.328.54c-.29.078-.58.136-.869.213-.038.058-.077.058-.116.058zm131.844-.58a.476.476 0 01-.444-.328c-.077-.29-.174-.58-.251-.869a.437.437 0 01.309-.56.43.43 0 01.56.309c.097.29.174.58.251.87.058.25-.077.501-.309.56-.038.018-.077.018-.116.018zm-128.31-.231a.455.455 0 01-.444-.367c-.058-.251.116-.483.348-.541l.888-.174a.445.445 0 01.522.367.445.445 0 01-.367.522l-.889.173c0 .02-.019.02-.057.02zm3.573-.676a.455.455 0 01-.444-.367.445.445 0 01.367-.522l.888-.173a.445.445 0 01.522.367.445.445 0 01-.367.52l-.889.175h-.077zm3.573-.657a.455.455 0 01-.444-.367.445.445 0 01.367-.521l.888-.155a.445.445 0 01.522.367.445.445 0 01-.367.522l-.889.154h-.077zm3.592-.637a.455.455 0 01-.444-.367.445.445 0 01.367-.522l.888-.154a.445.445 0 01.522.367.445.445 0 01-.367.521l-.889.135c-.038 0-.058.02-.077.02zm3.573-.657a.455.455 0 01-.444-.367.445.445 0 01.366-.521l.889-.155a.445.445 0 01.521.367.445.445 0 01-.367.522l-.888.154h-.077zm112.879-.598a.443.443 0 01-.425-.29 14.29 14.29 0 00-.328-.83.462.462 0 01.251-.6.463.463 0 01.599.252c.116.29.232.58.328.85a.444.444 0 01-.27.579.368.368 0 01-.155.039zm-109.886-.85a.514.514 0 01-.232-.058.466.466 0 01-.173-.618c.154-.27.309-.521.463-.792.135-.212.406-.29.618-.154.212.135.29.405.155.618-.155.25-.31.521-.464.772-.058.155-.212.232-.367.232zm108.438-2.472a.452.452 0 01-.406-.251c-.135-.27-.27-.522-.425-.792a.467.467 0 01.174-.618.466.466 0 01.618.174c.155.27.29.54.444.81a.466.466 0 01-.405.677zm-106.487-.599a.482.482 0 01-.27-.077.463.463 0 01-.117-.637c.174-.251.348-.502.541-.753a.459.459 0 01.638-.097.46.46 0 01.096.637 22.86 22.86 0 00-.521.734.42.42 0 01-.367.193zm104.575-2.51a.442.442 0 01-.367-.194c-.174-.231-.348-.482-.541-.714a.459.459 0 01.077-.637.46.46 0 01.638.077c.193.25.386.483.56.734a.46.46 0 01-.097.637.36.36 0 01-.27.097zm-102.354-.348a.425.425 0 01-.29-.116.456.456 0 01-.058-.637l.135-.155-.02-.038a.433.433 0 01.175-.618.433.433 0 01.618.174l.193.328a.435.435 0 01-.058.521l-.348.386a.452.452 0 01-.347.155zm99.979-2.395a.384.384 0 01-.309-.135 9.737 9.737 0 00-.657-.599.439.439 0 01-.039-.637.44.44 0 01.638-.038c.231.212.463.424.676.637.173.174.193.463.019.637-.077.097-.213.135-.328.135zM45.364 37.93a.425.425 0 01-.386-.232l-.444-.791a.466.466 0 01.174-.618c.212-.116.502-.058.618.173l.444.792a.466.466 0 01-.174.618.515.515 0 01-.232.058zm65.353-1.43a.454.454 0 01-.445-.385.46.46 0 01.387-.522l.907-.135a.459.459 0 11.135.908l-.888.135h-.096zm-2.55-.018a.452.452 0 01-.328-.136c-.212-.212-.425-.405-.637-.617a.439.439 0 01-.02-.638c.174-.174.464-.193.638-.02.231.213.444.426.676.638a.456.456 0 010 .638.55.55 0 01-.329.135zm35.515-.078a.511.511 0 01-.231-.057 10.117 10.117 0 00-.773-.445.467.467 0 01-.193-.618.467.467 0 01.618-.193l.811.464c.213.135.29.405.155.618a.426.426 0 01-.387.231zm-29.373-.463a.454.454 0 01-.445-.386.46.46 0 01.387-.522l.849-.135.116.444.02.464-.85.135h-.077zm3.592-.521c-.213 0-.425-.155-.445-.387a.46.46 0 01.387-.521l.907-.135a.459.459 0 11.136.907l-.889.136h-.096zm3.592-.522a.44.44 0 01-.444-.386.458.458 0 01.386-.522l.907-.115a.431.431 0 01.503.386.46.46 0 01-.387.521l-.907.116h-.058zm18.906-.039c-.038 0-.096 0-.154-.019-.29-.096-.56-.174-.85-.27-.232-.078-.386-.329-.309-.56.077-.232.309-.387.56-.31.29.078.599.175.888.271a.47.47 0 01.29.58.435.435 0 01-.425.308zm-96.83-.096a.477.477 0 01-.406-.232l-.444-.792a.466.466 0 01.173-.618.466.466 0 01.618.174l.444.792a.466.466 0 01-.173.618.39.39 0 01-.213.058zm81.535-.348a.44.44 0 01-.444-.386.43.43 0 01.386-.502l.908-.116a.43.43 0 01.502.386.43.43 0 01-.386.502l-.908.116h-.058zm-19.679-.309a.459.459 0 01-.27-.096c-.232-.174-.483-.348-.715-.541a.442.442 0 01-.096-.637.442.442 0 01.637-.097c.251.174.502.367.734.54a.459.459 0 01.077.638.499.499 0 01-.367.193zm31.44-.077h-.058c-.289-.039-.598-.077-.888-.116-.251-.02-.425-.25-.406-.502.02-.251.251-.425.502-.406.309.04.618.078.927.116a.46.46 0 01.387.522.46.46 0 01-.464.386zm-8.15-.039a.443.443 0 01-.444-.405.469.469 0 01.406-.502c.309-.039.598-.058.907-.078a.453.453 0 01.483.425.454.454 0 01-.425.483c-.309.02-.598.058-.888.077-.019-.019-.039 0-.039 0zm3.612-.231a.467.467 0 01-.464-.445c0-.25.193-.463.444-.463h.927a.454.454 0 11-.019.908h-.888c.019 0 .019 0 0 0zm-29.915-1.7a.512.512 0 01-.231-.058l-.194-.116a.441.441 0 01-.212-.483l.154-.656a.456.456 0 01.541-.348c.251.058.406.29.348.541l-.097.328a.438.438 0 01.078.56.426.426 0 01-.387.232zm-60.872-.174c-.038 0-.096 0-.135-.019a12 12 0 01-.888-.328.462.462 0 01-.251-.599.462.462 0 01.599-.251c.27.116.54.212.81.309a.461.461 0 01.29.58.435.435 0 01-.425.308zm-3.205-1.641a.362.362 0 01-.27-.097 22.18 22.18 0 01-.735-.58.456.456 0 01-.058-.636.456.456 0 01.638-.058c.212.193.444.367.695.54a.442.442 0 01.097.638.497.497 0 01-.367.193zm64.579-1.661h-.077c-.251-.058-.405-.27-.367-.502l.174-.888c.039-.252.29-.406.541-.367.251.038.405.29.367.54l-.174.85c-.058.193-.251.367-.464.367zm-38.682-.502a.504.504 0 01-.328-.135l-.618-.657c-.174-.174-.155-.463.02-.637.173-.174.463-.155.637.02l.618.656c.173.173.154.463-.02.637a.474.474 0 01-.309.116zm2.376-.077a.435.435 0 01-.425-.31.47.47 0 01.29-.579c.29-.096.579-.174.868-.27a.443.443 0 01.56.309.437.437 0 01-.308.56c-.29.077-.58.174-.87.27-.019.02-.077.02-.115.02zm-30.861-.31a.476.476 0 01-.367-.173 11.031 11.031 0 01-.54-.773c-.136-.212-.078-.502.134-.618a.441.441 0 01.618.136c.155.25.329.482.502.714a.445.445 0 01-.096.637.483.483 0 01-.251.078zm34.375-.637a.453.453 0 01-.444-.347.446.446 0 01.348-.541c.29-.077.599-.135.888-.193a.446.446 0 01.54.347.446.446 0 01-.347.541c-.29.058-.58.135-.869.193h-.116zm3.708-.695l-.154-.444-.058-.444c.348-.058.637-.097.908-.136a.43.43 0 01.502.387.43.43 0 01-.387.502c-.27.058-.54.096-.81.135zm3.477-.386a.433.433 0 01-.445-.425.454.454 0 01.425-.483c.31-.02.618-.038.908-.058a.454.454 0 11.058.908l-.908.058h-.038zm4.094-.116h-.483a.454.454 0 11.02-.908h.192l.058-.135c.116-.232.386-.309.618-.212a.458.458 0 01.213.598l-.194.387a.463.463 0 01-.424.27zm-19.66-.425a.452.452 0 01-.328-.135l-.618-.657a.438.438 0 01.019-.637.438.438 0 01.637.02l.618.656a.438.438 0 01-.02.637.473.473 0 01-.308.116zm41.849-.405h-.077c-.251-.04-.405-.29-.367-.541l.174-.889a.455.455 0 01.521-.366c.251.038.406.29.367.52l-.173.89a.454.454 0 01-.445.386zm-69.543-.522a.435.435 0 01-.425-.309c-.096-.29-.193-.599-.29-.908-.057-.25.078-.502.31-.56.25-.058.502.078.56.31.077.29.174.56.27.83.077.232-.038.502-.27.58a.308.308 0 01-.155.057zm48.764-1.487a.57.57 0 01-.194-.039c-.231-.115-.309-.386-.212-.618l.406-.81a.473.473 0 01.617-.213c.232.116.31.386.213.618l-.425.811a.437.437 0 01-.405.251zm-23.58-.212a.453.453 0 01-.329-.136l-.637-.656a.455.455 0 010-.637.455.455 0 01.637 0l.637.656a.438.438 0 01-.019.637.347.347 0 01-.29.136zm45.943-.753a.415.415 0 01-.348-.174.442.442 0 01.078-.638 6.17 6.17 0 00.656-.579.438.438 0 01.637.02.438.438 0 01-.019.637c-.232.212-.463.424-.714.618a.467.467 0 01-.29.116zm-71.822-1.101a.437.437 0 01-.444-.445v-.463c0-.154 0-.328.02-.483a.466.466 0 01.463-.444c.25.02.444.212.444.463v.87a.522.522 0 01-.483.502zm23.696-.889c-.232 0-.444-.193-.444-.425-.02-.29-.039-.579-.077-.869a.443.443 0 01.386-.502.443.443 0 01.502.387c.039.309.058.617.077.946a.454.454 0 01-.425.483l-.019-.02zm27.385-.29a.44.44 0 01-.213-.057.45.45 0 01-.193-.618l.406-.811a.45.45 0 01.618-.194.45.45 0 01.193.619l-.406.81a.45.45 0 01-.405.252zm23.136-.444c-.078 0-.174-.019-.232-.077a.441.441 0 01-.135-.618c.154-.25.289-.502.425-.753.115-.232.386-.309.618-.193a.45.45 0 01.193.618c-.155.29-.309.56-.464.83a.542.542 0 01-.405.193zm-73.792-1.989c-.039 0-.077 0-.116-.019a.43.43 0 01-.309-.56c.077-.31.174-.599.29-.908a.444.444 0 01.58-.27.444.444 0 01.27.58c-.097.27-.194.56-.27.83-.078.212-.252.347-.445.347zm52.336-.791a.44.44 0 01-.213-.058.45.45 0 01-.193-.618l.078-.136a2.834 2.834 0 01-.097-.405.479.479 0 01.328-.56.48.48 0 01.56.328c.039.174.097.367.155.54a.443.443 0 01-.039.349l-.154.29c-.116.173-.27.27-.425.27zm-29.78-.04a.435.435 0 01-.424-.308c-.097-.27-.213-.54-.329-.811a.454.454 0 11.83-.367c.136.29.252.58.348.869.078.232-.038.502-.27.58a.364.364 0 01-.154.038zm52.665-.501c-.039 0-.078 0-.116-.02-.251-.058-.386-.309-.328-.56.077-.29.135-.56.173-.85a.455.455 0 01.522-.366c.251.038.405.27.367.521a16.05 16.05 0 01-.193.927.433.433 0 01-.425.348zm-73.753-1.97a.464.464 0 01-.386-.714c.173-.271.347-.522.54-.773a.481.481 0 01.637-.097.481.481 0 01.097.638 9.118 9.118 0 00-.502.714.47.47 0 01-.386.232zm19.389-.734a.476.476 0 01-.367-.174c-.174-.232-.367-.463-.54-.676a.438.438 0 01.038-.637.438.438 0 01.637.039c.213.231.406.482.599.733a.445.445 0 01-.097.638.443.443 0 01-.27.077zm31.112-.309a.466.466 0 01-.464-.444v-.29c0-.212 0-.444.02-.656a.454.454 0 11.908.058c-.02.212-.02.405-.02.617v.27c.02.233-.174.445-.444.445.02 0 0 0 0 0zm23.619-.599a.466.466 0 01-.464-.444l-.058-.869c-.019-.25.155-.483.406-.502.251-.02.483.155.502.406.039.309.058.618.077.946a.457.457 0 01-.463.463zm-71.726-1.062a.413.413 0 01-.347-.174.456.456 0 01.058-.637c.25-.193.502-.386.753-.56a.463.463 0 01.637.116.463.463 0 01-.116.637l-.695.522a.474.474 0 01-.29.096zm14.407-.56a.483.483 0 01-.27-.077c-.232-.174-.483-.328-.734-.483-.212-.135-.29-.405-.154-.618.135-.212.405-.29.617-.154.27.154.541.328.792.521a.463.463 0 01.116.637.476.476 0 01-.367.174zM40.768 9.502a.482.482 0 01-.425-.29.434.434 0 01.251-.58c.29-.115.58-.212.889-.308a.437.437 0 01.56.309.437.437 0 01-.31.56c-.29.077-.56.173-.83.29-.02.019-.077.019-.135.019zm45.441-.097c-.038 0-.077 0-.115-.02a.43.43 0 01-.31-.56c.078-.27.155-.52.252-.791l.038-.116a.444.444 0 01.58-.27.444.444 0 01.27.579l-.039.116c-.077.232-.154.483-.231.734-.078.193-.251.328-.445.328zm-37.427-.212c-.038 0-.096 0-.135-.02-.27-.077-.56-.154-.85-.212a.446.446 0 01-.347-.54.446.446 0 01.54-.349c.31.058.619.155.908.232a.477.477 0 01.31.56.42.42 0 01-.425.329zm59.965-.367a.453.453 0 01-.425-.329l-.077-.231a7.522 7.522 0 00-.213-.6.462.462 0 01.251-.598.463.463 0 01.599.251c.077.213.154.425.232.657l.077.232a.437.437 0 01-.309.56c-.039.058-.097.058-.135.058zM44.302 8.71a.433.433 0 01-.444-.425.454.454 0 01.425-.483c.309-.02.618-.039.946-.039a.47.47 0 01.464.464.47.47 0 01-.464.463c-.29 0-.58.02-.869.04-.039-.02-.058-.02-.058-.02zm43.394-2.607a.425.425 0 01-.25-.078.464.464 0 01-.136-.637c.174-.27.348-.521.54-.772a.458.458 0 01.638-.078.458.458 0 01.078.638 9.404 9.404 0 00-.503.714.398.398 0 01-.367.213zm19.448-.522a.44.44 0 01-.367-.193 9.293 9.293 0 00-.541-.676.456.456 0 01.058-.637.456.456 0 01.637.058c.213.232.406.483.58.734a.46.46 0 01-.097.637.443.443 0 01-.27.077zM90.13 3.438a.413.413 0 01-.348-.174.458.458 0 01.077-.638c.251-.193.503-.386.773-.56a.468.468 0 01.637.136.468.468 0 01-.135.637 6.135 6.135 0 00-.715.521.809.809 0 01-.29.078zm14.445-.387a.482.482 0 01-.27-.077 9.683 9.683 0 00-.734-.483c-.212-.135-.29-.405-.154-.618.135-.212.405-.29.618-.154.27.154.54.328.791.521.213.135.251.425.116.638a.548.548 0 01-.367.173zm-11.278-1.37a.442.442 0 01-.425-.29.444.444 0 01.27-.58c.29-.116.6-.212.889-.29a.443.443 0 01.56.31.451.451 0 01-.31.56c-.289.077-.56.173-.83.27-.057 0-.115.02-.154.02zm8.014-.233c-.038 0-.096 0-.135-.019-.27-.077-.56-.154-.849-.232a.456.456 0 01.193-.888c.309.077.618.154.907.251a.449.449 0 01.29.56c-.019.193-.212.328-.406.328zm-4.48-.521c-.232 0-.444-.193-.444-.425a.454.454 0 01.425-.483c.29-.019.58-.019.869-.019.25 0 .483.212.483.463 0 .252-.174.464-.425.464h-.078c-.25 0-.52 0-.791.02-.02-.04-.02-.02-.039-.02z" fill="#FF403B"/><path d="M98.17 16.164c1.274-.193 2.394-.927 2.973-1.989.58-1.024.618-2.26.097-3.476-.715-1.7-2.433-2.704-4.171-2.453a3.89 3.89 0 00-1.217.386c-2.124 1.082-2.839 3.477-1.68 5.736.927 1.371 2.414 2.047 3.997 1.796zM87.893 39.261c.58.155 1.14.193 1.642.116 3.244-.483 4.055-5.31 4.654-8.845.135-.772.251-1.468.367-2.028.811-3.611 1.622-7.222 2.414-10.834a.38.38 0 00-.058-.29.46.46 0 00-.251-.173 5.192 5.192 0 01-1.487-.502c-.077-.039-.155-.058-.232-.039a.487.487 0 00-.29.193 282.956 282.956 0 00-5.832 11.336c-.193.387-.463.889-.772 1.43-1.371 2.452-3.264 5.793-2.337 7.956.348.83 1.082 1.39 2.182 1.68zM45.234 24.12c.097 0 .193-.019.29-.038 1.796-.27 3.051-1.313 3.592-2.993.231-1.314-.097-2.685-.87-3.65a3.727 3.727 0 00-2.838-1.372c-.251 0-.502 0-.734.04-1.873.27-3.67 1.834-3.36 4.19.231 2.008 1.583 4.055 3.92 3.824zm3.864-.656h-.058a.46.46 0 00-.213.116 5.573 5.573 0 01-1.255.966.345.345 0 00-.174.232c-.019.096-.019.212.039.29 2.704 4.827 5.62 10.003 8.652 15.16a.47.47 0 00.27.192h.135c.058-.019.136-.038.174-.077a38.288 38.288 0 014.983-3.283.399.399 0 00.193-.27.416.416 0 00-.097-.329l-.81-.869c-3.728-3.997-7.571-8.13-11.53-12.012a.56.56 0 00-.31-.116z" fill="#D1FFFF"/><path d="M48.036 52.741a.431.431 0 00.038.406.387.387 0 00.367.154h.02a3230.09 3230.09 0 0134.047-5.755c2.51-.405 5.002-.83 7.512-1.236 4.635-.772 9.29-1.545 13.924-2.279a.364.364 0 00.29-.231.356.356 0 00-.039-.367c-1.931-2.685-5.175-5.04-9.887-7.165-.078-.039-.136-.039-.213-.039-.038 0-.058.02-.096.02a.418.418 0 00-.213.231l-.116.387c-.058.212-.135.405-.212.617-.599 1.68-1.95 2.82-3.592 3.071a4.632 4.632 0 01-2.434-.309c-1.506-.618-2.684-1.68-3.128-2.858-.348-.888-.27-1.815.174-2.742l.29-.58a.409.409 0 000-.367.338.338 0 00-.29-.193 37.915 37.915 0 00-9.58.232 38.516 38.516 0 00-11.606 3.65 1.042 1.042 0 01-.328.154c-6.798 3.457-11.954 8.73-14.928 15.2zm96.674 92.312h-.039c-.347.077-.714.155-1.062.232-28.794 5.581-56.952 10.428-83.718 14.407-5.716.85-11.471 1.68-17.091 2.452l-.889.116c-1.1.155-2.279.329-3.476.444h-.02a.416.416 0 00-.328.309.352.352 0 00.194.406c5.948 3.283 12.553 2.858 18.81 1.931 1.429-.212 2.858-.463 4.268-.695.714-.116 1.429-.251 2.124-.367 9.695-1.603 19.39-3.225 29.084-4.847 9.984-1.68 19.949-3.361 29.915-5.06l1.409-.232c2.511-.425 5.041-.85 7.551-1.294 5.949-1.043 10.719-2.221 13.615-7.261a.417.417 0 00-.019-.425c-.039-.077-.174-.135-.328-.116z" fill="#91DEFF"/><path d="M154.675 99.052c-1.854-11.51-3.495-20.8-5.175-29.258-.792-3.94-1.622-8.13-2.646-12.302l-.309-1.332c-.869-3.747-1.873-7.996-4.268-11.028-4.075-5.137-11.317-4.094-17.149-3.244l-.946.135c-1.584.232-3.148.444-4.732.695-4.442.657-8.883 1.352-13.325 2.067a3615.457 3615.457 0 00-56.218 9.308c-7.976 1.39-16.473 2.878-25.01 4.539-4.73.907-13.035 3.514-15.623 10.737-1.12 3.129-.714 6.315-.328 9.386l.116.927c2.086 17.342 5.002 35.244 8.922 54.711.773 3.882 1.622 8.015 2.607 12.032l.27 1.081c.889 3.65 1.97 8.188 4.597 11.066 4.133 4.538 11.162 3.495 16.28 2.742l1.815-.27c4.133-.599 8.266-1.198 12.399-1.815 29.934-4.462 59.365-9.483 87.522-14.929.85-.174 1.758-.405 2.743-.676.038-.019.058-.019.116-.038 4.248-1.217 7.415-3.032 9.385-5.388 3.322-3.979 3.167-8.382 2.704-12.534-1.004-9.347-2.453-18.636-3.747-26.612z" fill="#D1FFFF"/><path d="M118.097 119.793c-2.665-18.385-5.06-33.796-8.111-49.246l-.29-1.468c-.54-2.8-1.1-5.677-2.066-8.362-1.738-4.828-4.519-6.643-9.598-6.276-2.24.154-4.635.444-7.551.869-1.912.29-3.805.598-5.697.907-1.275.213-2.55.425-3.805.618-18.288 2.897-36.152 5.775-53.9 9.212-2.8.599-9.347 2.53-9.907 7.783-.212 1.893.039 3.747.27 5.543l.058.463c.696 5.485 1.507 11.027 2.28 16.184 1.872 12.475 4.113 26.979 6.855 41.154.154.83.309 1.796.463 2.839.734 4.847 1.739 11.471 5.389 13.711 2.684 1.661 6.353 1.372 9.25.947.927-.135 1.854-.309 2.742-.464.792-.135 1.545-.27 2.24-.386 12.785-1.931 26.67-4.191 42.487-6.914 4.384-.753 9.116-1.583 13.886-2.452.734-.136 1.525-.251 2.317-.387 4.481-.714 9.54-1.506 12.36-5.233 3.109-4.133 1.893-10.525.927-15.662a80.437 80.437 0 01-.599-3.38z" fill="#8F8FEA"/><path d="M128.565 74.236a11.235 11.235 0 002.877-.85c5.485-2.53 7.996-9.25 5.582-15.005-2.028-4.828-6.914-7.686-11.897-6.933a10.79 10.79 0 00-3.399 1.1c-2.896 1.488-5.001 3.921-5.928 6.837-.966 3.052-.599 6.412 1.062 9.502 2.549 3.862 7.242 6.025 11.703 5.35zm19.737 47.701l-.193-1.294a1290.417 1290.417 0 00-3.244-20.24c-.541-3.167-1.062-6.257-1.642-9.327a63.404 63.404 0 01-.289-1.931c-.329-2.434-.734-5.485-2.202-7.088-1.12-1.236-3.283-1.584-6.663-1.082-2.626.387-5.446 1.217-7.705 1.874-1.043.309-1.931.56-2.588.714-4.712 1.101-3.109 8.71-2.066 13.75.212.985.386 1.855.482 2.511a1774.1 1774.1 0 002.801 18.231l.309 1.931c.656 4.113 1.332 8.362 2.24 12.514.56 2.646 1.699 5.272 5.813 4.654h.058c2.723-.424 5.484-.927 8.149-1.409.966-.174 1.932-.348 2.878-.522 3.36-.54 5.33-1.719 4.847-5.987-.231-2.452-.618-4.924-.985-7.299z" fill="#67D8EB"/><path d="M133.009 97.623c1.699-.251 3.186-1.236 3.978-2.646.541-.965 1.004-2.53.135-4.596-.946-2.24-3.206-3.573-5.523-3.225a5.026 5.026 0 00-1.603.521c-1.352.696-2.279 1.777-2.723 3.129-.444 1.41-.29 2.993.483 4.48 1.217 1.777 3.186 2.646 5.253 2.337z" fill="#FF5671"/><path d="M135.595 114.193c1.7-.251 3.187-1.236 3.978-2.646.541-.946 1.005-2.53.136-4.596-.947-2.24-3.206-3.573-5.524-3.225a5.041 5.041 0 00-1.603.521c-1.351.695-2.298 1.777-2.723 3.129-.444 1.409-.289 2.993.483 4.48 1.198 1.757 3.167 2.646 5.253 2.337z" fill="#FFD642"/><path d="M143.051 123.25c-.946-2.24-3.206-3.572-5.523-3.225a5.003 5.003 0 00-1.603.522c-1.352.695-2.298 1.776-2.723 3.128-.444 1.41-.29 2.994.483 4.481 1.197 1.776 3.167 2.665 5.252 2.356 1.7-.251 3.187-1.236 3.979-2.646.54-.985 1.004-2.549.135-4.616z" fill="#00FF8B"/><path d="M90.04 46.291c4.634-.772 9.289-1.545 13.924-2.278a.362.362 0 00.289-.232.358.358 0 00-.038-.367c-1.932-2.684-5.176-5.04-9.888-7.165-.077-.039-.135-.039-.213-.039-.038 0-.058.02-.096.02a.418.418 0 00-.213.232l-.116.386c-.057.212-.135.405-.212.618-.599 1.68-1.95 2.82-3.592 3.07a4.633 4.633 0 01-2.433-.309c-1.487-.598-2.627-1.641-3.11-2.8.116.522.31.985.541 1.371 1.14 1.893 3.4 2.974 5.581 2.916-4.403 4.886-36.519 9.29-41.501 9.212-.329.599-.657 1.198-.927 1.816a.431.431 0 00.038.405.387.387 0 00.367.155h.02a3230.09 3230.09 0 0134.047-5.755c2.51-.425 5.021-.85 7.532-1.256zm38.931 5.272c9.076 3.804 7.435 16.782-1.12 18.501-3.032.618-6.238.135-8.787-1.622-1.681-1.159-2.704-2.742-3.689-4.365a13.065 13.065 0 001.506 4.79c2.55 3.881 7.242 6.025 11.704 5.368a11.243 11.243 0 002.877-.85c5.485-2.53 7.995-9.25 5.581-15.005-1.506-3.573-4.557-6.044-8.072-6.817z" fill="#65B3BC"/><path d="M124.933 55.155c-2.434-.174-4.713 1.024-5.755 3.245-1.178 2.491.309 5.117 2.491 6.334.908.502 2.028.618 3.109.483.251-.02.522-.039.753-.097 2.762-.521 4.346-2.703 4.288-5.446-.058-2.51-2.53-4.345-4.886-4.519zM75.477 36.114c-3.766.482-8.613 2.49-12.379 4.635-7.744 4.403-7.995 6.875-2.453 6.392 4.114-.348 11.82-2.337 16.783-4.654 6.662-3.09 1.815-6.876-1.95-6.373z" fill="#A9F7FF"/><path d="M144.478 135.204c3.361-.54 5.33-1.718 4.848-5.986-.271-2.434-.657-4.906-1.024-7.281l-.193-1.294a1303.96 1303.96 0 00-3.244-20.239c-.541-3.167-1.063-6.257-1.642-9.328a63.106 63.106 0 01-.29-1.931c-.328-2.433-.734-5.485-2.201-7.088a3.14 3.14 0 00-.541-.463c1.101 7.01 2.704 13.963 3.689 20.992 1.197 8.555 3.032 18.192 2.298 26.844-.386 4.5-6.682 4.442-10.197 5.156-2.317.483-4.635.889-6.972 1.275.869 1.004 2.202 1.603 4.384 1.275h.058c2.723-.425 5.485-.927 8.15-1.41.965-.174 1.912-.348 2.877-.522zm.232 9.849h-.039c-.347.077-.714.155-1.062.232-28.794 5.581-56.952 10.428-83.718 14.407-5.716.85-11.471 1.68-17.091 2.452l-.889.116c-1.1.155-2.279.329-3.476.444h-.02a.416.416 0 00-.328.309.352.352 0 00.194.406c.714.386 1.429.734 2.163 1.024 3.572-.445 7.145-.985 10.718-1.294 14.117-1.217 28.041-4.809 42.042-6.914 13.248-1.989 26.458-4.094 39.629-6.566 3.65-.676 7.281-1.41 10.931-2.163a11.99 11.99 0 001.332-1.912.419.419 0 00-.019-.425.449.449 0 00-.367-.116z" fill="#65B3BC"/><path d="M133.819 95.21c-2.723.656-4.597-.175-6.547-1.179.116.425.29.83.502 1.255 1.197 1.777 3.167 2.665 5.253 2.356 1.699-.25 3.186-1.236 3.978-2.645.251-.425.464-1.004.56-1.68-1.062.85-2.24 1.525-3.746 1.892z" fill="#E23F58"/><path d="M136.174 112.068c-2.549.599-4.345-.058-6.161-.985.097.251.193.483.328.734 1.198 1.777 3.168 2.665 5.234 2.356 1.7-.251 3.187-1.236 3.978-2.645.232-.406.425-.908.541-1.507-1.081.927-2.337 1.68-3.92 2.047z" fill="#F1A12B"/><path d="M139.458 127.905c-2.588.618-4.403-.097-6.257-1.024.116.425.289.85.502 1.275 1.197 1.776 3.167 2.665 5.253 2.356 1.699-.251 3.186-1.236 3.978-2.646.29-.522.56-1.236.599-2.124-1.14.965-2.414 1.757-4.075 2.163z" fill="#50A76E"/><path d="M138.532 121.493c-2.202-.329-4.616 2.085-2.897 3.843 1.12 1.139 3.65.309 4.306-.657.85-1.255.309-2.935-1.409-3.186z" fill="#C0FFA8"/><path d="M135.131 105.502c-2.202-.328-4.616 2.086-2.897 3.843 1.12 1.14 3.65.309 4.306-.656.831-1.256.29-2.936-1.409-3.187z" fill="#FEE434"/><path d="M132.697 89.222c-2.201-.328-4.615 2.086-2.897 3.824 1.12 1.14 3.65.31 4.307-.657.83-1.236.309-2.916-1.41-3.167z" fill="#FF9A83"/><path d="M96.894 17.362a.46.46 0 00-.25-.174 5.188 5.188 0 01-1.488-.502c-.077-.039-.154-.058-.232-.039a.488.488 0 00-.29.193c-.385.695-.752 1.41-1.139 2.125.502 3.746-.174 7.705-1.255 11.413-.676 2.298-.792 4.693-2.202 6.72-.598.85-1.37 1.507-2.162 2.144h.019c.58.155 1.14.193 1.641.116 3.245-.483 4.056-5.31 4.655-8.845.135-.772.25-1.468.367-2.028.81-3.61 1.622-7.222 2.413-10.834a.503.503 0 00-.077-.29zm-41.81 16.936c-1.255-2.086-2.414-4.21-3.63-6.296-.715-1.216-1.024-2.317-1.082-3.399-.347-.328-.676-.676-1.004-1.004a.381.381 0 00-.27-.116h-.058a.46.46 0 00-.213.116 5.579 5.579 0 01-1.255.966.344.344 0 00-.174.232c-.019.096-.019.212.039.29 2.704 4.827 5.62 10.003 8.652 15.16a.47.47 0 00.27.192h.135c.058-.019.136-.038.174-.077.444-.348.908-.676 1.371-1.004-.869-1.758-1.97-3.438-2.955-5.06zm46.058-20.103c.579-1.024.618-2.26.096-3.477-.038-.116-.096-.212-.154-.309-.019.522-.077 1.024-.193 1.449-.56 1.95-3.013 2.665-4.77 2.491-1.004-.097-1.738-.58-2.356-1.178.096.406.212.83.424 1.236.908 1.333 2.395 2.009 3.979 1.757 1.274-.173 2.395-.927 2.974-1.97zM48.17 17.4c.135 1.14.096 2.298-.56 3.283-1.082 1.603-3.65 1.854-5.272 1.236-.27-.097-.502-.251-.754-.406.56 1.526 1.796 2.781 3.631 2.607.097 0 .193-.019.29-.038 1.796-.27 3.051-1.313 3.592-2.994.232-1.313-.097-2.684-.87-3.65-.018-.019-.038-.019-.057-.038zm106.507 81.652c-1.854-11.51-3.496-20.8-5.176-29.258-.792-3.94-1.622-8.13-2.646-12.302l-.309-1.332c-.869-3.747-1.873-7.996-4.268-11.028l-.058-.057c.078.772.174 1.564.29 2.355 1.024 8.054 2.356 16.01 3.766 24.006 3.148 17.767 7.841 35.862 8.999 53.9.58 8.961-4.731 13.518-12.977 15.392-4.867 1.12-9.792 2.105-14.678 3.128a1762.48 1762.48 0 01-56.623 10.873c-11.162 1.95-22.46 4.113-33.777 5.06-3.263.27-6.585.27-9.501-1.333-2.086-1.139-3.573-2.742-4.905-4.461.675 1.68 1.506 3.244 2.665 4.519 4.132 4.538 11.162 3.495 16.28 2.742l1.815-.27c4.133-.599 8.266-1.197 12.398-1.815 29.934-4.462 59.366-9.483 87.523-14.929a42.25 42.25 0 002.742-.676c.039-.019.058-.019.116-.038 4.249-1.217 7.416-3.032 9.386-5.388 3.322-3.979 3.167-8.382 2.704-12.534-1.024-9.289-2.472-18.578-3.766-26.554z" fill="#ACD0E0"/><path d="M107.282 59.771c-.638.444-1.275.889-1.874 1.333-3.959 2.916-5.967 7.145-6.218 11.993-.386 7.3 3.264 13.653 4.5 20.644 1.236 6.991-5.408 10.873-9.695 15.141-3.766 3.746-5.852 8.034-5.485 13.403.444 6.682 6.393 12.379 4.21 19.273-.58 1.854-1.603 3.573-2.703 5.214 2.626-.444 5.35-.927 8.13-1.429.406-.85.753-1.719 1.043-2.626 1.622-5.118-.328-10.294-2.26-15.025-1.236-3.032-2.665-6.219-1.68-9.54.792-2.665 3.283-4.79 5.253-6.586 3.457-3.167 6.837-6.141 8.768-10.486 2.549-5.717-.116-12.514-2.028-17.98-1.777-5.079-3.476-11.22.077-15.913a21.382 21.382 0 011.642-1.873c-.348-1.565-.753-3.129-1.294-4.616-.135-.309-.27-.618-.386-.927zm-55.637 80.416c4.654-3.959 8.15-8.285 8.092-14.639-.039-3.727-1.468-7.242-2.839-10.641-1.39-3.476-2.974-7.068.135-9.946 4.616-4.268 9.656-7.203 11.298-13.789.772-3.128.734-6.334-.213-9.424-1.12-3.65-3.765-6.605-4.712-10.274-1.236-4.731 4.81-9.753 8.498-13.17-3.689.598-7.377 1.177-11.047 1.795-2.356 2.916-4.075 6.18-4.364 10.139-.56 7.59 7.473 12.437 4.692 20.394-2.182 6.218-9.849 8.033-12.437 14.117-3.109 7.28 3.96 14.426 4.056 21.533.077 6.18-8.092 10.197-11.568 14.465a40.787 40.787 0 00-7.3 13.673c2.163.772 4.693.676 6.895.405 2.375-5.581 6.121-10.641 10.814-14.638zm23.637 2.781c3.766-5.987 6.084-11.414 3.573-18.405-1.68-4.673-6.102-8.903-2.645-13.885 1.892-2.723 5.02-4.654 7.435-6.895 5.156-4.79 6.315-10.428 5.562-17.265-.387-3.553-1.565-7.068-2.936-10.351-1.216-2.897-3.67-5.465-3.63-8.768.057-4.924 5.639-8.458 9.096-11.066a82.272 82.272 0 001.911-1.448c-1.004.116-2.027.27-3.167.425-1.912.29-3.804.599-5.697.908-1.159.193-2.337.386-3.495.579-2.028 2.144-3.631 4.596-4.462 7.512-1.834 6.431 2.492 11.356 4.597 17.053 1.467 3.978 2.414 9.29.985 13.383-1.217 3.534-5.215 5.968-7.899 8.304-6.006 5.234-7.648 11.453-4.268 18.791 1.912 4.172 4.287 7.455 2.569 12.148-1.545 4.21-4.713 8.014-7.397 11.548a48.303 48.303 0 00-3.92 6.006c2.838-.444 5.755-.927 8.71-1.41 1.699-2.356 3.514-4.673 5.079-7.164zm40.961-35.728c-6.663 5.717-10.602 13.635-8.633 23.271.773 3.824 2.936 7.243 3.805 11.047.096.406.154.811.193 1.236 2.356-.734 4.519-1.854 6.045-3.804-.676-2.588-1.97-5.138-2.916-7.474-1.545-3.843-1.816-8.015-.599-11.974.637-2.105 1.757-3.978 3.09-5.755-.329-2.221-.657-4.403-.985-6.547zm-77.114 15.45c.25-3.206-.734-6.373-1.99-9.289-1.622-3.766-5.002-8.208-1.352-11.858 5.466-5.466 11.723-7.648 13.345-16.049.792-4.113-.753-8.613-1.12-12.688-.425-4.692.348-7.609 2.858-11.027a801.812 801.812 0 00-9.328 1.622 17.212 17.212 0 00-.965 5.215c-.135 3.727.502 7.512 1.1 11.181.89 5.292-.637 8.614-4.77 11.82-5.85 4.538-11.432 8.42-9.655 16.743 1.332 6.238 6.682 11.182 3.553 17.729-1.081 2.278-2.993 4.229-5.137 6.006.309 1.699.637 3.418.966 5.117.135.754.27 1.603.424 2.55 1.39-1.024 2.743-2.047 3.979-3.11 4.23-3.688 7.667-8.246 8.092-13.962zM19.78 96.02c.038.193.057.386.096.58 6.527-4.403 11.896-10.719 12.784-18.54.522-4.538-1.062-8.536-2.742-12.553-.946.174-1.873.348-2.82.54a21.54 21.54 0 00-4.19 1.333c.038.116.096.213.135.329 2.723 6.334 4.19 12.224-.695 17.921a385.019 385.019 0 00-3.476 4.191c.29 2.105.598 4.172.907 6.2z" fill="#FEE434"/><path d="M54.601 151.774c2.974-4.5 7.513-7.686 10.41-12.263 3.07-4.867 3.128-9.888 1.255-15.199-1.12-3.148-2.279-6.122-2.51-9.482-.252-3.36.695-6.643 2.124-9.656 2.24-4.693 6.99-7.648 10.023-11.78 3.032-4.153 2.78-8.575.309-12.94-1.372-2.433-3.129-4.634-4.404-7.126-1.487-2.935-1.274-6.102.097-9.019 1.12-2.375 2.897-4.441 4.384-6.585a.965.965 0 01.116-.154c-.522.077-1.043.173-1.565.25l-.231.29c-1.487 2.028-2.994 3.998-4.094 6.258-2.24 4.692-.31 9.153 2.298 13.19 1.68 2.607 3.534 5.137 4.075 8.265.521 3.07-1.294 5.948-3.129 8.189-3.167 3.881-7.204 6.701-9.424 11.317-2.395 5.04-2.356 10.544-.657 15.778 1.1 3.36 2.723 6.546 2.704 10.158-.02 3.244-1.661 6.431-3.496 8.999-3.167 4.461-7.628 7.706-10.428 12.476a2.356 2.356 0 01-.116.212c.56-.077 1.12-.174 1.68-.27.174-.29.367-.599.58-.908zm52.374-38.006c-2.8 4.48-6.141 9.791-6.045 15.276.039 2.472.676 4.789 1.526 7.087 1.043 2.82 1.912 5.273 2.008 8.092.309-.058.618-.096.947-.154.116-.02.212-.039.328-.058 0-.869-.058-1.738-.193-2.607-.444-3.09-2.163-5.833-2.936-8.865-1.68-6.547 2.028-12.707 5.273-18.115 2.336-3.901 4.982-7.647 7.744-11.316-.039-.29-.097-.561-.135-.85-3.071 3.669-5.968 7.435-8.517 11.51zM40.85 138.101c8.921-6.74 3.553-17.4 2.548-26.361-.309-2.839-.038-5.678 1.507-8.131 1.313-2.066 3.418-3.553 5.31-5.06 3.612-2.858 6.74-6.199 6.026-11.123-.386-2.607-1.738-5.06-2.588-7.532-1.062-3.032-1.197-6.45-.772-9.598.405-3.129 1.738-6.141 3.418-8.787.174-.251.328-.522.502-.773-.502.078-1.004.174-1.487.251-.328.483-.637.966-.946 1.468-1.294 2.144-2.105 4.577-2.608 7.01-1.139 5.562.618 10.525 2.492 15.663 1.274 3.476.907 6.45-1.487 9.308-1.603 1.893-3.747 3.322-5.659 4.886-3.399 2.82-5.31 6.276-5.137 10.776.174 5.06 1.931 9.869 2.607 14.871.367 2.645.213 5.272-.85 7.744-1.235 2.916-4.055 4.77-6.585 6.431-3.573 2.356-6.43 4.866-8.516 8.323.154.522.328 1.024.502 1.506a19.598 19.598 0 014.634-5.948c2.144-1.873 4.79-3.186 7.088-4.924zm52.452-38.566c3.322-4.654 3.438-9.424 1.622-14.677-1.893-5.504-4.403-10.564-3.418-16.55.85-5.138 4.519-9.097 8.44-12.187.559-.444 1.216-.927 1.911-1.448a9.654 9.654 0 00-1.738-.251c-1.429 1.062-2.877 2.086-4.19 3.264-3.226 2.896-5.466 7.242-6.045 11.529-.676 5.195 1.294 10.158 3.147 14.87 1.236 3.167 2.28 6.508 1.372 9.907-.792 3.013-2.8 5.543-4.79 7.86-3.727 4.346-7.628 8.517-9.154 14.214-1.545 5.832 1.99 10.718 3.863 15.971 2.163 6.103-.406 11.375-3.67 16.358.618-.097 1.217-.213 1.835-.309.734-1.12 1.43-2.26 2.028-3.438 2.008-3.901 2.568-8.053 1.41-12.282-.734-2.685-2.125-5.157-3.187-7.706-1.545-3.689-1.506-7.126 0-10.815 2.318-5.658 7.107-9.482 10.564-14.31zm-72.422 3.708c.097.656.194 1.313.31 1.989 3.012-4.963 7.976-8.73 11.722-13.094 3.882-4.519 5.93-9.501 4.52-15.43-.85-3.573-2.395-7.957-2.646-12.109-.387.077-.754.135-1.14.213.174 3.205 1.082 6.527 1.738 9.115.87 3.399 1.777 6.624.773 10.12-.927 3.244-3.187 5.986-5.408 8.439-3.225 3.573-7.068 6.817-9.868 10.757zm-1.14-22.518c1.314-1.99 2.473-4.288 2.357-6.721-.078-1.738-1.024-3.341-2.28-4.77a8.489 8.489 0 00-.617.56c1.216 1.68 2.086 3.515 1.912 5.31-.232 2.453-1.873 4.77-3.36 6.721.057.483.115.966.193 1.43.618-.85 1.236-1.68 1.796-2.53z" fill="#FFFAD4"/><path d="M158.711 116.259c-2.549-18.598-5.62-37.234-9.656-55.561-1.371-6.238-2.51-14.272-7.744-18.578-4.171-3.438-11.201-2.337-16.087-1.68-6.47.868-12.92 1.853-19.37 2.877-2.549-3.94-6.933-6.586-11.124-8.478 1.642-5.581 2.472-11.607 3.689-17.227a6.29 6.29 0 001.448-.328c2.916-1.062 3.534-4.519 2.685-7.165-.985-3.051-4.578-3.9-7.262-2.78-2.993 1.255-3.882 4.982-2.414 7.666.02.039.058.058.077.097.02.038.02.077.039.096.154.251.328.464.521.676-2.916 5.311-5.562 10.777-8.227 16.223-7.57-.928-15.391.424-22.19 3.746-4.248-4.558-8.477-9.154-12.958-13.5.116-.25.232-.52.31-.79.019-.04 0-.078 0-.117l.057-.116c.58-2.877-1.14-6.025-4.171-6.566-3.07-.54-5.871 1.198-6.47 4.307-.56 2.916 1.43 5.794 4.249 6.411a4.808 4.808 0 001.893.02c2.935 5.253 5.91 10.506 8.96 15.7-3.669 3.206-6.682 7.185-8.651 11.839-.04.077-.04.154-.04.232-6.353 1.12-12.687 2.26-19.021 3.456-8.286 1.565-16.551 4.404-19.66 13.075-1.95 5.465.444 13.48 1.216 19.003 2.607 18.52 5.64 37.099 9.792 55.349 1.37 5.986 2.684 14.117 8.458 17.535 2.414 1.429 5.388 1.757 8.382 1.661 8.053 5.793 17.342 4.21 26.438 2.704a5871.173 5871.173 0 0031.904-5.331c10.525-1.776 21.069-3.553 31.594-5.349 8.536-1.449 17.806-1.796 21.765-10.602 4.983-1.545 9.54-4.326 11.974-9.154 2.723-5.389.386-13.654-.406-19.351zM96.024 9.019c1.912-.966 4.056-.058 4.847 1.854 1.777 4.229-3.978 6.836-6.392 3.321-.966-1.95-.444-4.152 1.545-5.176zm-1.043 8.014c.502.27 1.043.444 1.603.54-.792 3.612-1.584 7.224-2.395 10.835-.791 3.476-1.14 11.78-6.18 10.467-4.885-1.255-.077-7.976 1.178-10.525a231.335 231.335 0 015.794-11.317zm-49.787 6.701c-2.085.213-3.283-1.68-3.534-3.495-.309-2.221 1.623-3.843 3.708-3.805 2.434.058 3.747 2.356 3.36 4.558-.54 1.66-1.834 2.588-3.534 2.742zm2.55 1.14c.502-.27.946-.618 1.352-1.024 4.248 4.152 8.284 8.517 12.34 12.881a36.05 36.05 0 00-5.04 3.322c-2.955-5.04-5.813-10.1-8.652-15.18zm15.41 12.978c.136-.04.271-.116.387-.194 6.392-3.186 13.77-4.538 20.896-3.804l-.29.58c-1.352 2.742.676 5.136 3.148 6.14 2.762 1.12 5.562-.29 6.527-2.993.116-.328.213-.676.329-1.004 3.534 1.603 7.416 3.824 9.733 7.049-7.145 1.159-14.29 2.356-21.436 3.515-11.356 1.873-22.711 3.766-34.067 5.755 3.07-6.663 8.4-11.78 14.774-15.044zm68.269 114.656c-2.993.521-5.987 1.023-8.961 1.545-9.965 1.699-19.949 3.379-29.914 5.059-9.695 1.623-19.39 3.264-29.084 4.848-8.382 1.39-17.246 3.418-24.952-.831 1.526-.173 3.013-.386 4.384-.579 33.72-4.674 67.419-10.39 100.829-16.859.367-.078.715-.155 1.081-.232-2.896 4.963-7.609 6.044-13.383 7.049zm26.651-26.844c.502 4.519.483 8.555-2.607 12.244-2.24 2.684-5.755 4.287-9.193 5.272-.058.019-.096.019-.154.039-.908.251-1.816.482-2.685.656-33.12 6.412-66.51 11.954-99.901 16.744-5.697.811-13.442 2.414-17.768-2.337-2.82-3.09-3.804-8.092-4.77-11.973-.985-3.979-1.796-7.996-2.607-12.013-3.67-18.076-6.74-36.364-8.941-54.672-.406-3.419-1.005-6.798.193-10.14 2.279-6.353 9.25-9.308 15.334-10.486 8.323-1.603 16.647-3.07 24.99-4.538a3444.024 3444.024 0 0156.217-9.309c6.006-.946 12.032-1.892 18.057-2.742 5.852-.83 13.576-2.279 17.729 2.974 2.626 3.322 3.553 8.208 4.519 12.206.985 4.074 1.815 8.188 2.626 12.282 1.931 9.714 3.611 19.467 5.176 29.258 1.429 8.806 2.8 17.651 3.785 26.535z" fill="#68182B"/><path d="M111.395 70.354c-1.023-5.215-1.661-12.476-6.102-15.971-3.747-2.955-10.41-1.12-14.736-.483-17.516 2.607-34.974 5.542-52.413 8.652a734.45 734.45 0 00-11.259 2.085c-6.044 1.275-11.76 4.925-11.22 11.82.444 5.639 1.41 11.278 2.24 16.878 2.375 16.145 4.828 32.348 8.13 48.339 1.043 5.04 1.99 12.224 7.532 14.155 4.558 1.603 10.834-.193 15.489-.907 17.786-2.723 35.534-5.659 53.224-8.865 6.585-1.197 17.477-2.201 18.771-10.699.773-5.021-.869-10.853-1.583-15.797-2.318-16.435-4.886-32.889-8.073-49.207zm6.064 68.249c-3.206 4.249-9.598 4.577-14.426 5.465-4.615.85-9.25 1.661-13.885 2.453-14.137 2.433-28.293 4.77-42.468 6.914-4.248.637-10.158 2.317-13.982-.039-4.268-2.626-4.79-11.703-5.678-16.319-2.626-13.653-4.77-27.404-6.836-41.135-.811-5.388-1.603-10.776-2.279-16.164-.25-1.97-.54-3.92-.309-5.929.483-4.519 5.813-6.643 9.598-7.435 17.883-3.457 35.882-6.354 53.862-9.212 5.639-.888 11.336-1.989 17.033-2.414 4.925-.347 7.551 1.41 9.212 6.026 1.12 3.128 1.68 6.527 2.337 9.771 3.225 16.3 5.736 32.773 8.111 49.227.772 5.659 3.399 13.866-.29 18.791zM132.021 74.7c6.895-2.53 8.343-10.661 6.315-16.918-2.356-7.242-10.757-9.25-17.168-6.586-7.184 2.994-9.077 11.858-5.601 18.27.019.038.058.058.077.096.02.039.02.077.039.097 3.553 5.58 10.293 7.242 16.338 5.04zm-10.119-21.824c5.735-2.935 12.359-.096 14.773 5.64 2.298 5.523 0 12.031-5.388 14.503-5.06 2.337-11.143.116-14.098-4.365-3.147-5.89-1.313-12.688 4.713-15.778zm4.654 43.105c.02.039.02.078.039.097 1.835 2.897 5.388 3.727 8.517 2.568 3.611-1.332 4.383-5.6 3.321-8.864-1.236-3.785-5.658-4.847-8.98-3.438-3.727 1.565-4.789 6.18-2.974 9.54.019.04.058.059.077.097zm3.631-7.976c2.568-1.313 5.504-.058 6.585 2.51 2.395 5.698-5.426 9.348-8.671 4.52-1.371-2.607-.637-5.64 2.086-7.03zm7.492 27.211c3.611-1.313 4.384-5.6 3.322-8.864-1.236-3.785-5.659-4.848-8.981-3.438-3.727 1.564-4.789 6.18-2.974 9.521.02.039.058.058.078.097.019.038.019.077.038.096 1.854 2.897 5.408 3.727 8.517 2.588zm-4.925-10.641c2.569-1.313 5.504-.058 6.586 2.511 2.394 5.697-5.427 9.347-8.671 4.519-1.372-2.627-.618-5.639 2.085-7.03zm2.609 14.639c-3.727 1.564-4.789 6.18-2.974 9.54.019.039.058.058.077.097.02.038.02.077.039.096 1.835 2.878 5.388 3.727 8.517 2.588 3.611-1.313 4.384-5.601 3.321-8.864-1.216-3.785-5.639-4.848-8.98-3.457zm-1.352 8.71c-1.371-2.627-.618-5.659 2.086-7.049 2.569-1.314 5.504-.058 6.586 2.51 2.394 5.717-5.427 9.367-8.672 4.539z" fill="#68182B"/><path d="M144.265 88.894c-.541-2.878-.889-6.045-2.936-8.304-1.719-1.912-4.577-1.275-6.74-.812-3.476.754-6.952 1.468-10.428 2.24-6.103 1.353-5.118 5.891-4.365 11.086a1720.659 1720.659 0 003.631 24.044c.946 5.928 1.661 12.07 3.283 17.863 1.912 6.914 13.576 2.395 17.98 1.603 5.426-.869 6.508-3.688 5.89-9.096-.985-8.71-2.646-17.4-4.075-26.052a726.52 726.52 0 00-2.24-12.572zm4.673 40.362c.444 3.882-1.197 5.041-4.519 5.562-3.669.657-7.338 1.371-11.027 1.931-3.689.58-4.828-1.525-5.446-4.345-1.024-4.77-1.758-9.598-2.53-14.407-.985-6.064-1.893-12.147-2.8-18.211-.58-3.901-3.959-14.6 1.274-15.836 3.592-.85 13.789-4.712 16.57-1.622 1.777 1.97 1.912 6.296 2.395 8.825.579 3.11 1.101 6.219 1.641 9.328 1.14 6.74 2.202 13.48 3.245 20.22.405 2.858.869 5.697 1.197 8.555z" fill="#68182B"/></svg>