<svg width="26" height="14" fill="none" xmlns="http://www.w3.org/2000/svg"><path fill-rule="evenodd" clip-rule="evenodd" d="M23.143 9.814s2.102 1.955 2.622 2.86c.01.013.018.027.023.043.212.334.264.596.16.79-.175.32-.77.48-.971.493h-3.715c-.26 0-.797-.064-1.453-.49-.5-.33-.998-.872-1.48-1.402-.72-.787-1.343-1.47-1.974-1.47a.754.754 0 00-.234.037c-.477.141-1.082.782-1.082 2.487 0 .534-.448.838-.761.838h-1.702c-.58 0-3.598-.191-6.275-2.85C3.021 7.897.076 1.369.047 1.31-.136.888.248.658.664.658h3.752c.503 0 .667.286.782.543.132.295.624 1.476 1.43 2.802C7.933 6.16 8.735 7.038 9.376 7.038c.12 0 .239-.03.343-.086.837-.433.681-3.25.642-3.83 0-.112-.001-1.257-.43-1.81C9.624.914 9.1.76 8.786.703c.084-.115.263-.291.494-.395C9.853.039 10.889 0 11.917 0h.57c1.116.015 1.405.082 1.81.179.817.183.832.682.761 2.379-.02.485-.043 1.03-.043 1.674 0 .137-.006.29-.006.445-.025.87-.058 1.852.595 2.254.085.05.182.076.282.076.226 0 .904 0 2.74-2.969.806-1.311 1.43-2.858 1.473-2.974.037-.065.146-.247.279-.32a.648.648 0 01.306-.07h4.414c.48 0 .807.07.87.24.108.279-.02 1.127-2.035 3.693-.34.428-.637.798-.898 1.12-1.827 2.259-1.827 2.373.108 4.087z" fill="#FAFAFA"/></svg>