<svg width="70" height="70" fill="none" xmlns="http://www.w3.org/2000/svg"><mask id="a" maskUnits="userSpaceOnUse" x="0" y="0" width="70" height="70"><path fill="#FF403B" d="M0 0h70v70H0z"/></mask><g mask="url(#a)" fill="#FF403B"><path d="M68.43 44.733V35.43c0-.044-.01-.094-.014-.138-.005-.05-.005-.099-.015-.148-.01-.05-.03-.098-.044-.143-.005-.015-.01-.024-.01-.04-.01-.029-.015-.063-.03-.093 0 0 0-.005-.005-.005v-.005c-.024-.054-.054-.103-.079-.153-.02-.034-.034-.074-.054-.103 0 0 0-.005-.005-.005-.024-.035-.054-.064-.084-.099-.034-.039-.064-.083-.103-.123-.04-.04-.084-.069-.128-.103-.015-.01-.025-.025-.04-.035-.02-.015-.04-.034-.059-.05-.024-.019-.054-.029-.084-.044-.059-.034-.113-.069-.177-.093 0 0-.005 0-.005-.005l-24.193-9.928V3.513A1.515 1.515 0 0041.787 2H2.096C1.263 2 .583 2.675.583 3.513v30.193l-.661.28A1.512 1.512 0 00-1 35.407c-.01.602.335 1.174.922 1.425l.66.281v18.746c0 .834.676 1.514 1.514 1.514h10.056v2.011c0 .449.197.872.542 1.163.38.316 9.41 7.72 21.334 7.72 11.944 0 20.605-7.424 20.97-7.74.33-.285.518-.704.518-1.138V41.73l9.893-4.042v7.049c-1.484.922-2.455 3.204-2.455 6.093 0 3.79 1.671 6.536 3.968 6.536 2.297 0 3.968-2.75 3.968-6.536-.005-2.894-.98-5.176-2.46-6.098zM3.605 5.027h36.67V22.87l-6.576-2.701a1.51 1.51 0 00-1.163.005l-28.93 12.25V5.026zm8.548 49.318H3.604V38.39l8.543 3.618v12.338h.005zm40.342 4.313c-1.957 1.509-9.238 6.581-18.466 6.581-9.242 0-16.809-5.087-18.854-6.6v-15.35l17.36 7.35a1.528 1.528 0 001.164.004l18.8-7.68v15.695h-.004zM33.83 36.95h25.391l-26.09 10.663L4.313 35.406 33.13 23.201l8.065 3.313h.005l18.056 7.409H33.831a1.514 1.514 0 000 3.026zm33.086 17.347c-.335-.31-.946-1.533-.946-3.465 0-1.864.567-3.052.907-3.422.015 0 .025.005.04.005.014 0 .029-.005.039-.005.345.365.902 1.529.902 3.422.005 1.961-.602 3.154-.942 3.465z"/><path d="M29.557 11.282H14.82a1.514 1.514 0 000 3.027h14.738a1.514 1.514 0 000-3.027zm0 4.968H14.82a1.514 1.514 0 000 3.027h14.738a1.514 1.514 0 000-3.026z"/></g></svg>